<svg width="101" height="1797" viewBox="0 0 101 1797" fill="none" xmlns="http://www.w3.org/2000/svg">
<circle cx="33.0137" cy="1734.5" r="1.5" fill="#333333"/>
<path d="M22.0157 1727.5C24.849 1728 33.2157 1728.5 44.0157 1726.5C57.5157 1724 71.0157 1725 77.0157 1741C83.0157 1757 77.0157 1767 70.0157 1774C63.0157 1781 44.5157 1781 38.0157 1779.5C31.5157 1778 29.0157 1775 29.0157 1774C29.0157 1773.2 32.0157 1767 33.5157 1764L50.5157 1771C53.8491 1769.5 60.4157 1765 60.0157 1759C59.5157 1751.5 54.5157 1747.5 48.5157 1747C42.5157 1746.5 29.5158 1748 24.5159 1738.5C20.8463 1731.53 22.3892 1725.44 22.0157 1727.5ZM22.0157 1727.5C22.0158 1724.5 24.8159 1718.6 36.0159 1719C47.2159 1719.4 54.6826 1717.5 57.0159 1716.5" stroke="#333333" stroke-width="2" stroke-linecap="round"/>
<path d="M60.0137 1726C58.0137 1730.67 54.0137 1741.7 54.0137 1748.5M60.0137 1757C64.1803 1753.5 73.6137 1746 78.0137 1744M59.0137 1764.5L71.5137 1772M50.5137 1771L51.0137 1780" stroke="#333333" stroke-width="2" stroke-linecap="round"/>
<rect x="14.4142" y="1669.86" width="54.3689" height="22.7599" rx="11.38" transform="rotate(-45 14.4142 1669.86)" stroke="#333333" stroke-width="2"/>
<circle cx="74.5" cy="1672.5" r="12.5" stroke="#333333" stroke-width="2"/>
<circle cx="51.5" cy="1690.5" r="8.5" stroke="#333333" stroke-width="2"/>
<line x1="34.213" y1="1650.06" x2="50.213" y2="1666.06" stroke="#333333" stroke-width="2"/>
<line x1="62" y1="1673" x2="87" y2="1673" stroke="#333333" stroke-width="2"/>
<path d="M61.5 1581C66.3333 1579.17 76.9 1574.8 80.5 1572C85 1568.5 83.5 1564 78.5 1561.5C74.5 1559.5 66.8333 1562.33 63.5 1564L55.5 1567.36M64 1574C61.6667 1582 56.6 1598.6 55 1601C53 1604 51 1605.5 48 1606C45.6 1606.4 43 1606.17 42 1606L44.73 1586.5M45.5 1581L44.73 1586.5M44.73 1586.5C41.82 1588.17 35.1 1591.3 31.5 1590.5C27 1589.5 19 1581 18.5 1578.5C19.6667 1576.67 23.4 1574.1 29 1578.5L43 1572.62M43 1572.62L31.5 1561C31.1667 1560.67 30.9 1559.7 32.5 1558.5C34.5 1557 39 1555.5 40.5 1556.5C41.7 1557.3 51 1564.07 55.5 1567.36M43 1572.62L55.5 1567.36" stroke="#333333" stroke-width="2"/>
<line x1="82" y1="1617" x2="17" y2="1617" stroke="#333333" stroke-width="2"/>
<path d="M40 1483H39V1483.02L39.0011 1483.05L40 1483ZM43.8979 1495.01L43.1195 1495.64L43.1195 1495.64L43.8979 1495.01ZM44.6245 1495.93L43.8309 1496.54L43.8638 1496.58L43.9012 1496.62L44.6245 1495.93ZM46.9944 1501.79L45.9952 1501.75L45.9934 1501.79L45.9958 1501.84L46.9944 1501.79ZM22.0056 1501.79L23.0042 1501.84L23.0066 1501.79L23.0048 1501.75L22.0056 1501.79ZM24.3755 1495.93L25.0988 1496.62L25.1362 1496.58L25.1691 1496.54L24.3755 1495.93ZM25.1021 1495.01L24.3237 1494.38L24.3237 1494.38L25.1021 1495.01ZM29 1483L29.9989 1483.05L30 1483.02V1483H29ZM31 1471C29.3431 1471 28 1472.34 28 1474H30C30 1473.45 30.4477 1473 31 1473V1471ZM38 1471H31V1473H38V1471ZM41 1474C41 1472.34 39.6569 1471 38 1471V1473C38.5523 1473 39 1473.45 39 1474H41ZM41 1483V1474H39V1483H41ZM44.6763 1494.38C43.7542 1493.24 42.9574 1492.25 42.3205 1490.64C41.6778 1489.01 41.1775 1486.7 40.9989 1482.95L39.0011 1483.05C39.1857 1486.92 39.7085 1489.47 40.4609 1491.37C41.2191 1493.29 42.1897 1494.49 43.1195 1495.64L44.6763 1494.38ZM45.4181 1495.32C45.166 1494.99 44.9154 1494.68 44.6762 1494.38L43.1195 1495.64C43.3608 1495.94 43.5962 1496.23 43.8309 1496.54L45.4181 1495.32ZM48 1501.5C48 1499.12 46.9903 1496.96 45.3478 1495.24L43.9012 1496.62C45.2474 1498.03 46 1499.71 46 1501.5H48ZM47.9937 1501.83C47.9979 1501.72 48 1501.61 48 1501.5H46C46 1501.58 45.9984 1501.67 45.9952 1501.75L47.9937 1501.83ZM48 1502C48 1501.91 47.9977 1501.82 47.993 1501.73L45.9958 1501.84C45.9986 1501.89 46 1501.95 46 1502H48ZM48 1538V1502H46V1538H48ZM43 1543C45.7614 1543 48 1540.76 48 1538H46C46 1539.66 44.6569 1541 43 1541V1543ZM26 1543H43V1541H26V1543ZM21 1538C21 1540.76 23.2386 1543 26 1543V1541C24.3431 1541 23 1539.66 23 1538H21ZM21 1502V1538H23V1502H21ZM21.007 1501.73C21.0023 1501.82 21 1501.91 21 1502H23C23 1501.95 23.0014 1501.89 23.0042 1501.84L21.007 1501.73ZM21 1501.5C21 1501.61 21.0021 1501.72 21.0063 1501.83L23.0048 1501.75C23.0016 1501.67 23 1501.58 23 1501.5H21ZM23.6522 1495.24C22.0097 1496.96 21 1499.12 21 1501.5H23C23 1499.71 23.7526 1498.03 25.0988 1496.62L23.6522 1495.24ZM24.3237 1494.38C24.0846 1494.68 23.834 1494.99 23.5819 1495.32L25.1691 1496.54C25.4038 1496.23 25.6392 1495.94 25.8805 1495.64L24.3237 1494.38ZM28.0011 1482.95C27.8225 1486.7 27.3222 1489.01 26.6795 1490.64C26.0426 1492.25 25.2458 1493.24 24.3237 1494.38L25.8805 1495.64C26.8103 1494.49 27.7809 1493.29 28.5391 1491.37C29.2915 1489.47 29.8143 1486.92 29.9989 1483.05L28.0011 1482.95ZM28 1474V1483H30V1474H28Z" fill="#333333"/>
<mask id="path-12-inside-1_5415_12902" fill="white">
<path fill-rule="evenodd" clip-rule="evenodd" d="M57.8872 1487C57.381 1487 56.9546 1487.38 56.8943 1487.88L54.2244 1510.13C54.0771 1510.9 54 1511.69 54 1512.5C54 1519.4 59.5964 1525 66.5 1525C73.4036 1525 79 1519.4 79 1512.5C79 1511.51 78.8848 1510.55 78.6671 1509.62L75.6206 1487.86C75.5514 1487.37 75.129 1487 74.6302 1487H57.8872Z"/>
</mask>
<path d="M56.8943 1487.88L58.8801 1488.12L58.8801 1488.12L56.8943 1487.88ZM54.2244 1510.13L56.1886 1510.51L56.2018 1510.44L56.2102 1510.37L54.2244 1510.13ZM78.6671 1509.62L76.6864 1509.9L76.6992 1509.99L76.7204 1510.08L78.6671 1509.62ZM75.6206 1487.86L77.6013 1487.58L77.6013 1487.58L75.6206 1487.86ZM58.8801 1488.12C58.8197 1488.62 58.3934 1489 57.8872 1489V1485C56.3686 1485 55.0895 1486.13 54.9085 1487.64L58.8801 1488.12ZM56.2102 1510.37L58.8801 1488.12L54.9085 1487.64L52.2387 1509.89L56.2102 1510.37ZM56 1512.5C56 1511.82 56.065 1511.15 56.1886 1510.51L52.2603 1509.75C52.0893 1510.64 52 1511.56 52 1512.5H56ZM66.5 1523C60.701 1523 56 1518.3 56 1512.5H52C52 1520.51 58.4919 1527 66.5 1527V1523ZM77 1512.5C77 1518.3 72.299 1523 66.5 1523V1527C74.5081 1527 81 1520.51 81 1512.5H77ZM76.7204 1510.08C76.903 1510.86 77 1511.67 77 1512.5H81C81 1511.35 80.8667 1510.24 80.6138 1509.16L76.7204 1510.08ZM73.6399 1488.14L76.6864 1509.9L80.6478 1509.34L77.6013 1487.58L73.6399 1488.14ZM74.6302 1489C74.1315 1489 73.7091 1488.63 73.6399 1488.14L77.6013 1487.58C77.3938 1486.1 76.1264 1485 74.6302 1485V1489ZM57.8872 1489H74.6302V1485H57.8872V1489Z" fill="#333333" mask="url(#path-12-inside-1_5415_12902)"/>
<line x1="67" y1="1525" x2="67" y2="1542" stroke="#333333" stroke-width="2"/>
<line x1="77" y1="1541" x2="57" y2="1541" stroke="#333333" stroke-width="2"/>
<line x1="77" y1="1510" x2="55" y2="1510" stroke="#333333" stroke-width="2"/>
<mask id="path-17-inside-2_5415_12902" fill="white">
<path fill-rule="evenodd" clip-rule="evenodd" d="M28 1401C26.8954 1401 26 1401.9 26 1403V1411.25C26 1411.66 25.7454 1412.02 25.3718 1412.2C21.6091 1413.94 19 1417.76 19 1422.18V1456C19 1457.1 19.8954 1458 21 1458H49C50.1046 1458 51 1457.1 51 1456V1422.18C51 1417.41 47.9647 1413.35 43.7204 1411.82C43.2993 1411.67 43 1411.28 43 1410.84V1403C43 1401.9 42.1046 1401 41 1401H28Z"/>
</mask>
<path d="M28 1403V1403V1399C25.7909 1399 24 1400.79 24 1403H28ZM28 1411.25V1403H24V1411.25H28ZM21 1422.18C21 1418.56 23.1312 1415.44 26.2143 1414.01L24.5293 1410.38C20.087 1412.45 17 1416.95 17 1422.18H21ZM21 1456V1422.18H17V1456H21ZM21 1456V1456H17C17 1458.21 18.7909 1460 21 1460V1456ZM49 1456H21V1460H49V1456ZM49 1456V1460C51.2091 1460 53 1458.21 53 1456H49ZM49 1422.18V1456H53V1422.18H49ZM43.044 1413.71C46.5195 1414.95 49 1418.28 49 1422.18H53C53 1416.54 49.4099 1411.74 44.3967 1409.94L43.044 1413.71ZM41 1403V1410.84H45V1403H41ZM41 1403H45C45 1400.79 43.2091 1399 41 1399V1403ZM28 1403H41V1399H28V1403ZM44.3967 1409.94C44.6922 1410.05 45 1410.36 45 1410.84H41C41 1412.21 41.9063 1413.3 43.044 1413.71L44.3967 1409.94ZM24 1411.25C24 1410.81 24.2626 1410.51 24.5293 1410.38L26.2143 1414.01C27.2281 1413.54 28 1412.51 28 1411.25H24Z" fill="#333333" mask="url(#path-17-inside-2_5415_12902)"/>
<line x1="27" y1="1392" x2="43" y2="1392" stroke="#333333" stroke-width="2"/>
<line x1="35" y1="1402" x2="35" y2="1391" stroke="#333333" stroke-width="2"/>
<line x1="26" y1="1413" x2="44" y2="1413" stroke="#333333" stroke-width="2"/>
<path d="M59.3937 1446.11L57.0557 1403H80.9454L78.6525 1446.11C78.596 1447.17 77.7186 1448 76.6553 1448H61.3907C60.3282 1448 59.4512 1447.17 59.3937 1446.11Z" stroke="#333333" stroke-width="2"/>
<rect x="63" y="1448" width="13" height="10" rx="1" stroke="#333333" stroke-width="2"/>
<mask id="path-24-inside-3_5415_12902" fill="white">
<path fill-rule="evenodd" clip-rule="evenodd" d="M57.4095 1322C64.1418 1322 68.7421 1326.29 70.5513 1332.36C70.8927 1333.22 71.0935 1334.15 71.1874 1335.07C71.2144 1335.34 71.239 1335.6 71.2612 1335.87C71.3596 1336.72 71.4095 1337.6 71.4095 1338.5C71.4095 1338.55 71.4093 1338.59 71.409 1338.64C71.8368 1357.87 59.5409 1371 51.4093 1371C48.913 1371 46.5502 1370.41 44.4447 1369.36C43.3576 1368.82 42.0623 1368.82 40.9752 1369.36C38.8697 1370.41 36.5069 1371 34.0105 1371C25.8766 1371 13.576 1357.87 14.0112 1338.62C14.011 1338.58 14.0108 1338.54 14.0108 1338.5C14.0108 1337.61 14.0601 1336.74 14.1573 1335.88C14.1799 1335.61 14.2049 1335.35 14.2325 1335.07C14.3265 1334.15 14.5279 1333.22 14.8706 1332.36C16.6807 1326.29 21.2803 1322 28.0108 1322C32.3078 1322 36.6821 1323.75 40.0424 1326.59C41.5345 1327.85 43.8858 1327.85 45.3779 1326.59C48.7382 1323.75 53.1125 1322 57.4095 1322Z"/>
</mask>
<path d="M70.5513 1332.36L68.6345 1332.93L68.6593 1333.01L68.6912 1333.1L70.5513 1332.36ZM71.1874 1335.07L69.1977 1335.28L69.1977 1335.28L71.1874 1335.07ZM71.2612 1335.87L69.2682 1336.04L69.2708 1336.07L69.2742 1336.1L71.2612 1335.87ZM71.409 1338.64L69.409 1338.62L69.4088 1338.65L69.4095 1338.68L71.409 1338.64ZM14.0112 1338.62L16.0107 1338.67L16.0114 1338.64L16.0112 1338.61L14.0112 1338.62ZM14.1573 1335.88L16.1444 1336.11L16.1478 1336.08L16.1503 1336.05L14.1573 1335.88ZM14.2325 1335.07L16.2222 1335.28L16.2222 1335.28L14.2325 1335.07ZM14.8706 1332.36L16.7301 1333.09L16.7622 1333.01L16.7871 1332.93L14.8706 1332.36ZM40.0424 1326.59L38.7507 1328.12L40.0424 1326.59ZM45.3779 1326.59L44.0862 1325.06L45.3779 1326.59ZM44.4447 1369.36L43.5511 1371.15L44.4447 1369.36ZM40.9752 1369.36L41.8687 1371.15L40.9752 1369.36ZM72.468 1331.79C70.4549 1325.03 65.1857 1320 57.4095 1320V1324C63.098 1324 67.0294 1327.54 68.6345 1332.93L72.468 1331.79ZM73.1771 1334.87C73.0684 1333.8 72.8325 1332.69 72.4113 1331.63L68.6912 1333.1C68.9529 1333.76 69.1187 1334.5 69.1977 1335.28L73.1771 1334.87ZM73.2541 1335.7C73.2309 1335.42 73.2053 1335.15 73.1771 1334.87L69.1977 1335.28C69.2235 1335.53 69.247 1335.78 69.2682 1336.04L73.2541 1335.7ZM73.4095 1338.5C73.4095 1337.53 73.3555 1336.57 73.2481 1335.64L69.2742 1336.1C69.3637 1336.88 69.4095 1337.68 69.4095 1338.5H73.4095ZM73.4089 1338.65C73.4093 1338.6 73.4095 1338.55 73.4095 1338.5H69.4095C69.4095 1338.54 69.4093 1338.58 69.409 1338.62L73.4089 1338.65ZM51.4093 1373C56.4238 1373 62.0545 1369.1 66.2497 1363.19C70.5309 1357.16 73.6321 1348.65 73.4085 1338.59L69.4095 1338.68C69.6136 1347.86 66.7809 1355.53 62.9881 1360.87C59.1095 1366.34 54.5265 1369 51.4093 1369V1373ZM43.5511 1371.15C45.9263 1372.33 48.5942 1373 51.4093 1373V1369C49.2317 1369 47.174 1368.49 45.3382 1367.57L43.5511 1371.15ZM40.0816 1367.57C38.2458 1368.49 36.1881 1369 34.0105 1369V1373C36.8256 1373 39.4935 1372.33 41.8687 1371.15L40.0816 1367.57ZM34.0105 1369C30.8924 1369 26.3077 1366.34 22.4285 1360.87C18.6352 1355.53 15.803 1347.85 16.0107 1338.67L12.0118 1338.57C11.7842 1348.64 14.8848 1357.15 19.1664 1363.19C23.3622 1369.1 28.9947 1373 34.0105 1373V1369ZM12.0108 1338.5C12.0108 1338.54 12.011 1338.59 12.0113 1338.63L16.0112 1338.61C16.0109 1338.57 16.0108 1338.54 16.0108 1338.5H12.0108ZM12.1702 1335.66C12.0642 1336.59 12.0108 1337.54 12.0108 1338.5H16.0108C16.0108 1337.68 16.056 1336.89 16.1444 1336.11L12.1702 1335.66ZM16.1503 1336.05C16.1719 1335.79 16.1958 1335.54 16.2222 1335.28L12.2427 1334.87C12.214 1335.15 12.1879 1335.44 12.1643 1335.72L16.1503 1336.05ZM16.2222 1335.28C16.3013 1334.5 16.4676 1333.75 16.7301 1333.09L13.011 1331.62C12.5883 1332.69 12.3517 1333.8 12.2427 1334.87L16.2222 1335.28ZM28.0108 1320C20.2368 1320 14.9683 1325.03 12.954 1331.78L16.7871 1332.93C18.3931 1327.54 22.3238 1324 28.0108 1324V1320ZM41.3341 1325.06C37.6515 1321.95 32.8293 1320 28.0108 1320V1324C31.7863 1324 35.7126 1325.55 38.7507 1328.12L41.3341 1325.06ZM57.4095 1320C52.5911 1320 47.7688 1321.95 44.0862 1325.06L46.6696 1328.12C49.7077 1325.55 53.634 1324 57.4095 1324V1320ZM38.7507 1328.12C40.9885 1330.01 44.4318 1330.01 46.6696 1328.12L44.0862 1325.06C43.3397 1325.69 42.0806 1325.69 41.3341 1325.06L38.7507 1328.12ZM45.3382 1367.57C43.6885 1366.75 41.7313 1366.75 40.0816 1367.57L41.8687 1371.15C42.3933 1370.89 43.0266 1370.89 43.5511 1371.15L45.3382 1367.57Z" fill="#333333" mask="url(#path-24-inside-3_5415_12902)"/>
<path d="M43 1317L43 1328" stroke="#333333" stroke-width="2"/>
<path d="M73.9097 1326V1343.5M87.9097 1326V1343.5M80.9097 1323V1349.5M80.9097 1370.5V1349.5M73.9097 1343.5V1352.5L80.9097 1358.5L87.9097 1352.5V1343.5M73.9097 1343.5L80.9097 1349.5M80.9097 1349.5L87.9097 1343.5M73.9097 1333.5L80.9097 1339.5L87.9097 1333.5" stroke="#333333" stroke-width="2"/>
<mask id="path-28-inside-4_5415_12902" fill="white">
<path fill-rule="evenodd" clip-rule="evenodd" d="M44.2477 1241.86C43.6569 1241.54 43.4805 1240.74 43.8324 1240.16C44.5732 1238.95 45 1237.53 45 1236C45 1231.58 41.4183 1228 37 1228C32.5817 1228 29 1231.58 29 1236C29 1237.53 29.4268 1238.95 30.1676 1240.16C30.5195 1240.74 30.3431 1241.54 29.7523 1241.86C25.7802 1244.06 22.9101 1248.01 22.1813 1252.66C22.0631 1253.09 22 1253.54 22 1254V1255V1293C22 1295.76 24.2386 1298 27 1298H47C49.7614 1298 52 1295.76 52 1293V1255V1254C52 1253.54 51.9369 1253.09 51.8187 1252.66C51.0899 1248.01 48.2198 1244.06 44.2477 1241.86Z"/>
</mask>
<path d="M22.1813 1252.66L24.1086 1253.2L24.1394 1253.08L24.1572 1252.97L22.1813 1252.66ZM51.8187 1252.66L49.8428 1252.97L49.8606 1253.08L49.8914 1253.2L51.8187 1252.66ZM30.1676 1240.16L28.4607 1241.21L30.1676 1240.16ZM29.7523 1241.86L28.7845 1240.11L29.7523 1241.86ZM43.8324 1240.16L45.5393 1241.21L43.8324 1240.16ZM44.2477 1241.86L43.28 1243.61L44.2477 1241.86ZM43 1236C43 1237.15 42.68 1238.21 42.1255 1239.12L45.5393 1241.21C46.4663 1239.69 47 1237.9 47 1236H43ZM37 1230C40.3137 1230 43 1232.69 43 1236H47C47 1230.48 42.5228 1226 37 1226V1230ZM31 1236C31 1232.69 33.6863 1230 37 1230V1226C31.4772 1226 27 1230.48 27 1236H31ZM31.8745 1239.12C31.32 1238.21 31 1237.15 31 1236H27C27 1237.9 27.5337 1239.69 28.4607 1241.21L31.8745 1239.12ZM24.1572 1252.97C24.7879 1248.94 27.2736 1245.52 30.72 1243.61L28.7845 1240.11C24.2869 1242.6 21.0324 1247.07 20.2053 1252.35L24.1572 1252.97ZM24 1254C24 1253.72 24.0382 1253.45 24.1086 1253.2L20.2539 1252.13C20.088 1252.73 20 1253.35 20 1254H24ZM24 1255V1254H20V1255H24ZM24 1293V1255H20V1293H24ZM27 1296C25.3431 1296 24 1294.66 24 1293H20C20 1296.87 23.134 1300 27 1300V1296ZM47 1296H27V1300H47V1296ZM50 1293C50 1294.66 48.6569 1296 47 1296V1300C50.866 1300 54 1296.87 54 1293H50ZM50 1255V1293H54V1255H50ZM50 1254V1255H54V1254H50ZM49.8914 1253.2C49.9618 1253.45 50 1253.72 50 1254H54C54 1253.35 53.912 1252.73 53.7461 1252.13L49.8914 1253.2ZM43.28 1243.61C46.7264 1245.52 49.2121 1248.94 49.8428 1252.97L53.7947 1252.35C52.9676 1247.07 49.7131 1242.6 45.2155 1240.11L43.28 1243.61ZM28.4607 1241.21C28.3448 1241.02 28.3275 1240.81 28.3673 1240.65C28.4085 1240.47 28.5334 1240.25 28.7845 1240.11L30.72 1243.61C32.3941 1242.69 32.7666 1240.58 31.8745 1239.12L28.4607 1241.21ZM42.1255 1239.12C41.2334 1240.58 41.6059 1242.69 43.28 1243.61L45.2155 1240.11C45.4666 1240.25 45.5915 1240.47 45.6327 1240.65C45.6725 1240.81 45.6552 1241.02 45.5393 1241.21L42.1255 1239.12Z" fill="#333333" mask="url(#path-28-inside-4_5415_12902)"/>
<line x1="23" y1="1253" x2="51" y2="1253" stroke="#333333" stroke-width="2"/>
<line x1="23" y1="1268" x2="37" y2="1268" stroke="#333333" stroke-width="2"/>
<line x1="23" y1="1281" x2="37" y2="1281" stroke="#333333" stroke-width="2"/>
<mask id="path-33-inside-5_5415_12902" fill="white">
<path fill-rule="evenodd" clip-rule="evenodd" d="M79 1242C79 1246.69 76.6464 1250.75 73.2155 1252.72C72.865 1252.93 72.6421 1253.3 72.667 1253.7L74.95 1290.69C74.983 1290.96 75 1291.23 75 1291.5C75 1295.09 72.0899 1298 68.5 1298C64.9101 1298 62 1295.09 62 1291.5C62 1291.17 62.0245 1290.85 62.0718 1290.53L64.7806 1253.96C64.8122 1253.53 64.5664 1253.14 64.1861 1252.94C60.5387 1251.06 58 1246.87 58 1242C58 1235.37 62.701 1228 68.5 1228C74.299 1228 79 1235.37 79 1242Z"/>
</mask>
<path d="M74.95 1290.69L72.9538 1290.81L72.9576 1290.87L72.9653 1290.94L74.95 1290.69ZM62.0718 1290.53L64.0498 1290.83L64.0608 1290.75L64.0664 1290.68L62.0718 1290.53ZM64.7806 1253.96L62.7861 1253.81L64.7806 1253.96ZM64.1861 1252.94L65.1028 1251.17L64.1861 1252.94ZM73.2155 1252.72L72.218 1250.99L73.2155 1252.72ZM72.667 1253.7L70.6708 1253.83L72.667 1253.7ZM74.213 1254.46C78.3196 1252.1 81 1247.34 81 1242H77C77 1246.04 74.9732 1249.41 72.218 1250.99L74.213 1254.46ZM76.9462 1290.57L74.6632 1253.58L70.6708 1253.83L72.9538 1290.81L76.9462 1290.57ZM72.9653 1290.94C72.9881 1291.12 73 1291.31 73 1291.5H77C77 1291.14 76.9779 1290.79 76.9347 1290.44L72.9653 1290.94ZM73 1291.5C73 1293.99 70.9853 1296 68.5 1296V1300C73.1944 1300 77 1296.19 77 1291.5H73ZM68.5 1296C66.0147 1296 64 1293.99 64 1291.5H60C60 1296.19 63.8056 1300 68.5 1300V1296ZM64 1291.5C64 1291.27 64.0171 1291.04 64.0498 1290.83L60.0938 1290.23C60.0319 1290.65 60 1291.07 60 1291.5H64ZM62.7861 1253.81L60.0773 1290.38L64.0664 1290.68L66.7752 1254.11L62.7861 1253.81ZM56 1242C56 1247.54 58.8902 1252.46 63.2695 1254.72L65.1028 1251.17C62.1871 1249.66 60 1246.2 60 1242H56ZM68.5 1226C64.7125 1226 61.5554 1228.39 59.4456 1231.36C57.3165 1234.35 56 1238.25 56 1242H60C60 1239.12 61.034 1236.02 62.7052 1233.67C64.3956 1231.3 66.4885 1230 68.5 1230V1226ZM81 1242C81 1238.25 79.6835 1234.35 77.5544 1231.36C75.4446 1228.39 72.2875 1226 68.5 1226V1230C70.5115 1230 72.6044 1231.3 74.2948 1233.67C75.966 1236.02 77 1239.12 77 1242H81ZM66.7752 1254.11C66.8721 1252.8 66.1202 1251.69 65.1028 1251.17L63.2695 1254.72C63.0126 1254.59 62.7524 1254.27 62.7861 1253.81L66.7752 1254.11ZM72.218 1250.99C71.2758 1251.53 70.5945 1252.59 70.6708 1253.83L74.6632 1253.58C74.6896 1254.01 74.4543 1254.32 74.213 1254.46L72.218 1250.99Z" fill="#333333" mask="url(#path-33-inside-5_5415_12902)"/>
<mask id="path-35-inside-6_5415_12902" fill="white">
<path fill-rule="evenodd" clip-rule="evenodd" d="M21.4104 1185C18.5667 1185 16.2887 1187.4 17.2061 1190.09C20.9136 1200.97 34.2721 1213 50.1835 1213C66.0949 1213 79.4535 1200.97 83.161 1190.09C84.0783 1187.4 81.8004 1185 78.9567 1185H21.4104Z"/>
</mask>
<path d="M83.161 1190.09L81.2679 1189.45L83.161 1190.09ZM50.1835 1211C42.7367 1211 35.832 1208.18 30.3223 1204.03C24.7948 1199.86 20.803 1194.45 19.0992 1189.45L15.313 1190.74C17.3166 1196.62 21.8578 1202.66 27.9143 1207.22C33.9887 1211.8 41.7189 1215 50.1835 1215V1211ZM81.2679 1189.45C79.5641 1194.45 75.5722 1199.86 70.0447 1204.03C64.5351 1208.18 57.6303 1211 50.1835 1211V1215C58.6481 1215 66.3784 1211.8 72.4527 1207.22C78.5093 1202.66 83.0505 1196.62 85.0541 1190.74L81.2679 1189.45ZM78.9567 1183H21.4104V1187H78.9567V1183ZM85.0541 1190.74C85.7597 1188.67 85.2198 1186.66 83.9821 1185.23C82.7743 1183.83 80.9319 1183 78.9567 1183V1187C79.8251 1187 80.5436 1187.37 80.9563 1187.85C81.3392 1188.29 81.4796 1188.83 81.2679 1189.45L85.0541 1190.74ZM19.0992 1189.45C18.8875 1188.83 19.0278 1188.29 19.4107 1187.85C19.8235 1187.37 20.5419 1187 21.4104 1187V1183C19.4352 1183 17.5928 1183.83 16.385 1185.23C15.1473 1186.66 14.6074 1188.67 15.313 1190.74L19.0992 1189.45Z" fill="#333333" mask="url(#path-35-inside-6_5415_12902)"/>
<path d="M36.9529 1186.5C34.6195 1185 30.0529 1179.7 30.4529 1170.5C30.9529 1159 30.9526 1160.5 32.9526 1160.5C34.5823 1160.5 44.511 1159.84 50.5668 1165M56.9526 1186.5C57.4526 1184.17 57.5526 1177.5 53.9526 1169.5C53.1193 1167.65 51.9431 1166.17 50.5668 1165M50.5668 1165C53.1954 1161.67 60.1526 1155 66.9526 1155C69.6193 1156.67 74.5526 1162.1 72.9526 1170.5M72.9526 1170.5C71.3526 1178.9 65.6193 1184.33 62.9526 1186M72.9526 1170.5C72.9526 1170.5 74.786 1167.17 76.9526 1169C79.1193 1170.83 82.5526 1176.8 78.9526 1186" stroke="#333333" stroke-width="2"/>
<path d="M30.4528 1169.5C28.4528 1169 23.5528 1168.9 19.9528 1172.5C15.4528 1177 19.9528 1185.5 24.4528 1186M38.9526 1169.5C41.786 1173.83 48.4526 1183.2 52.4526 1186M63.9526 1164C61.6193 1167.33 56.9526 1174.9 56.9526 1178.5" stroke="#333333" stroke-width="2" stroke-linecap="round"/>
<path d="M45 1080.5C48.5 1085.5 48 1095.5 42.5 1097C39.557 1097.8 34.6204 1097.96 33 1090.61M67 1134C65.6094 1119.82 65.3017 1111.82 65.3885 1107M33 1090.61C32.7423 1089.44 32.5685 1088.08 32.4999 1086.5C32.0999 1077.3 40.3332 1072.33 44.4999 1071C48.6666 1070.17 58.2 1069.7 63 1074.5C69 1080.5 66 1082.5 71 1083C76 1083.5 77 1084 77.5 1086.5C78 1089 77 1096.5 68 1097C67.5 1097 66.4 1097.6 66 1100C65.7781 1101.33 65.4578 1103.15 65.3885 1107M33 1090.61C33.3945 1092.95 33.8513 1097.94 33.24 1102.5M21 1133C24.1667 1126.17 30.9 1111.2 32.4999 1106C32.8372 1104.9 33.0767 1103.72 33.24 1102.5M33.24 1102.5C38.419 1104.17 52.0993 1107.4 65.3885 1107" stroke="#333333" stroke-width="2" stroke-linecap="round"/>
<circle cx="60" cy="1081.5" r="1.5" fill="#333333"/>
<path d="M52.5657 990.5C56.1657 992.5 56.3991 995.333 56.0657 996.5C55.5656 1000.5 59.0659 998.5 62.0659 1005C64.7328 1010.78 70.5659 1010.5 73.5659 1010C76.5659 1009.5 80.0659 1010 81.0659 1015.5C82.0659 1021 81.0659 1021.5 80.0659 1028C79.0659 1034.5 77.5659 1035.5 74.5659 1038.5C71.5659 1041.5 70.5659 1045 64.0659 1047C57.5659 1049 56.0657 1051.5 51.0659 1051C46.0661 1050.5 41.0659 1051.5 38.5657 1049C36.0656 1046.5 30.0659 1046 28.0657 1042C26.0656 1038 21.0659 1036.5 20.5657 1031C20.0656 1025.5 18.5657 1022.5 18.0657 1020C17.5657 1017.5 20.0657 1014.5 20.5657 1009C21.0657 1003.5 25.0657 1003 28.0657 998C31.0657 993 34.5657 995 38.5657 992.5C42.5657 990 48.0657 988 52.5657 990.5Z" stroke="#333333" stroke-width="2"/>
<circle cx="50" cy="992" r="2" fill="#333333"/>
<circle cx="50" cy="999" r="2" fill="#333333"/>
<circle cx="50" cy="1006" r="2" fill="#333333"/>
<circle cx="50" cy="1012" r="2" fill="#333333"/>
<circle cx="50" cy="1028" r="2" fill="#333333"/>
<circle cx="50" cy="1020" r="2" fill="#333333"/>
<circle cx="50" cy="1034" r="2" fill="#333333"/>
<circle cx="50" cy="1028" r="2" fill="#333333"/>
<mask id="path-50-inside-7_5415_12902" fill="white">
<rect x="23" y="904" width="54" height="69" rx="1"/>
</mask>
<rect x="23" y="904" width="54" height="69" rx="1" stroke="#333333" stroke-width="4" mask="url(#path-50-inside-7_5415_12902)"/>
<line x1="25" y1="918" x2="77" y2="918" stroke="#333333" stroke-width="2"/>
<line x1="64" y1="912" x2="71" y2="912" stroke="#333333" stroke-width="2"/>
<circle cx="49.5" cy="944.5" r="18.5" stroke="#333333" stroke-width="2"/>
<path d="M60 861L38 888H81L69.5 869.5L66 871.5L60 861Z" stroke="#333333" stroke-width="2"/>
<path d="M51 843C51 834.716 44.2843 828 36 828C27.7157 828 21 834.716 21 843" stroke="#333333" stroke-width="2"/>
<path d="M52 871L51 843H36.2388H20.9552L20 888H38.1493" stroke="#333333" stroke-width="2"/>
<circle cx="36.5" cy="837.5" r="1.5" fill="#333333"/>
<circle cx="30.5" cy="837.5" r="1.5" fill="#333333"/>
<circle cx="42.5" cy="837.5" r="1.5" fill="#333333"/>
<circle cx="64" cy="855" r="1" fill="#333333"/>
<circle cx="72" cy="860" r="1" fill="#333333"/>
<circle cx="69.5" cy="848.5" r="1.5" fill="#333333"/>
<path d="M69.1095 773C61.9428 780.333 48.2095 797.9 50.6095 809.5M36.1094 757C37.1094 767.333 39.8094 790.3 42.6094 799.5M53.6096 795C51.2762 790.833 48.6096 780.3 56.6096 771.5C64.6096 762.7 75.9429 762.833 80.6095 764C81.2762 770.333 80.7095 784.2 73.1095 789C63.6095 795 60.6096 795 53.6096 795ZM21.1094 788C20.4427 794.333 22.5094 807 36.1094 807C37.2761 801.167 35.9094 789.2 21.1094 788ZM34.6094 744C27.1094 753.667 17.7094 775.4 40.1094 785C47.276 778.167 56.2094 760.4 34.6094 744Z" stroke="#333333" stroke-width="2" stroke-linecap="round"/>
<path d="M28.8101 645.945L22.2344 614.945H79.2838L73.1778 645.945H28.8101Z" stroke="#333333" stroke-width="2"/>
<path d="M17 614.945H84" stroke="#333333" stroke-width="2" stroke-linecap="round"/>
<circle cx="66" cy="602.945" r="7" stroke="#333333" stroke-width="2"/>
<mask id="path-67-inside-8_5415_12902" fill="white">
<path fill-rule="evenodd" clip-rule="evenodd" d="M52.9381 615.945C52.979 615.618 53 615.284 53 614.945C53 610.527 49.4183 606.945 45 606.945C40.5817 606.945 37 610.527 37 614.945C37 615.284 37.021 615.618 37.0619 615.945H52.9381Z"/>
</mask>
<path d="M52.9381 615.945V617.945H54.7042L54.9227 616.193L52.9381 615.945ZM37.0619 615.945L35.0773 616.193L35.2958 617.945H37.0619V615.945ZM51 614.945C51 615.201 50.9841 615.452 50.9535 615.698L54.9227 616.193C54.9738 615.783 55 615.367 55 614.945H51ZM45 608.945C48.3137 608.945 51 611.632 51 614.945H55C55 609.422 50.5228 604.945 45 604.945V608.945ZM39 614.945C39 611.632 41.6863 608.945 45 608.945V604.945C39.4772 604.945 35 609.422 35 614.945H39ZM39.0465 615.698C39.0159 615.452 39 615.201 39 614.945H35C35 615.367 35.0262 615.783 35.0773 616.193L39.0465 615.698ZM37.0619 617.945H52.9381V613.945H37.0619V617.945Z" fill="#333333" mask="url(#path-67-inside-8_5415_12902)"/>
<path d="M20.6733 605L75.6733 586" stroke="#333333" stroke-width="2" stroke-linecap="round"/>
<mask id="path-70-inside-9_5415_12902" fill="white">
<path fill-rule="evenodd" clip-rule="evenodd" d="M53.9994 594.032C53.9998 594.003 54 593.974 54 593.945C54 590.632 51.3137 587.945 48 587.945C44.6863 587.945 42 590.632 42 593.945C42 595.419 42.5316 596.769 43.4136 597.814L53.9994 594.032Z"/>
</mask>
<path d="M53.9994 594.032L54.6722 595.916L55.9795 595.448L55.9992 594.06L53.9994 594.032ZM43.4136 597.814L41.8855 599.104L42.7803 600.164L44.0865 599.697L43.4136 597.814ZM52 593.945C52 593.965 51.9999 593.984 51.9996 594.004L55.9992 594.06C55.9997 594.022 56 593.984 56 593.945H52ZM48 589.945C50.2091 589.945 52 591.736 52 593.945H56C56 589.527 52.4183 585.945 48 585.945V589.945ZM44 593.945C44 591.736 45.7909 589.945 48 589.945V585.945C43.5817 585.945 40 589.527 40 593.945H44ZM44.9417 596.524C44.353 595.826 44 594.93 44 593.945H40C40 595.909 40.7102 597.712 41.8855 599.104L44.9417 596.524ZM44.0865 599.697L54.6722 595.916L53.3265 592.149L42.7407 595.931L44.0865 599.697Z" fill="#333333" mask="url(#path-70-inside-9_5415_12902)"/>
<path d="M39 512C39 514.173 37.8537 516.817 35.897 518.936C33.9507 521.043 31.3253 522.5 28.5 522.5C25.6747 522.5 23.0493 521.043 21.103 518.936C19.1463 516.817 18 514.173 18 512C18 507.796 22.4589 504 28.5 504C34.5411 504 39 507.796 39 512Z" stroke="#333333" stroke-width="2"/>
<mask id="path-73-inside-10_5415_12902" fill="white">
<path fill-rule="evenodd" clip-rule="evenodd" d="M28.5 521.5C26.5474 521.5 23.5 520 23.5 520L24 561H24.0275C24.2762 563.25 26.1837 565 28.5 565C30.8163 565 32.7238 563.25 32.9725 561H33L33.5 520C33.5 520 30.4526 521.5 28.5 521.5Z"/>
</mask>
<path d="M23.5 520L24.3833 518.206L21.4604 516.767L21.5001 520.024L23.5 520ZM24 561L22.0001 561.024L22.0242 563H24V561ZM24.0275 561L26.0154 560.78L25.8186 559H24.0275V561ZM32.9725 561V559H31.1814L30.9846 560.78L32.9725 561ZM33 561V563H34.9758L34.9999 561.024L33 561ZM33.5 520L35.4999 520.024L35.5396 516.767L32.6167 518.206L33.5 520ZM23.5 520C22.6167 521.794 22.617 521.795 22.6172 521.795C22.6173 521.795 22.6176 521.795 22.6178 521.795C22.6182 521.795 22.6186 521.795 22.6191 521.796C22.6201 521.796 22.6212 521.797 22.6226 521.797C22.6253 521.799 22.6287 521.8 22.6328 521.802C22.6412 521.806 22.6524 521.812 22.6664 521.819C22.6944 521.832 22.7336 521.851 22.783 521.874C22.8817 521.92 23.0214 521.985 23.1939 522.062C23.5376 522.215 24.0186 522.419 24.5691 522.624C25.5953 523.007 27.1366 523.5 28.5 523.5V519.5C27.9107 519.5 26.9521 519.243 25.9664 518.876C25.5111 518.706 25.1081 518.535 24.8194 518.407C24.6757 518.343 24.5621 518.29 24.4865 518.255C24.4487 518.237 24.4206 518.224 24.403 518.215C24.3942 518.211 24.3881 518.208 24.3848 518.206C24.3831 518.206 24.3821 518.205 24.3819 518.205C24.3817 518.205 24.3818 518.205 24.382 518.205C24.3821 518.205 24.3823 518.205 24.3825 518.205C24.3826 518.205 24.3828 518.205 24.3828 518.205C24.383 518.205 24.3833 518.206 23.5 520ZM25.9999 560.976L25.4999 519.976L21.5001 520.024L22.0001 561.024L25.9999 560.976ZM24.0275 559H24V563H24.0275V559ZM28.5 563C27.2145 563 26.1533 562.028 26.0154 560.78L22.0396 561.22C22.3991 564.472 25.1529 567 28.5 567V563ZM30.9846 560.78C30.8467 562.028 29.7855 563 28.5 563V567C31.8471 567 34.6009 564.472 34.9604 561.22L30.9846 560.78ZM33 559H32.9725V563H33V559ZM31.5001 519.976L31.0001 560.976L34.9999 561.024L35.4999 520.024L31.5001 519.976ZM28.5 523.5C29.8634 523.5 31.4047 523.007 32.4309 522.624C32.9814 522.419 33.4624 522.215 33.8061 522.062C33.9786 521.985 34.1183 521.92 34.217 521.874C34.2664 521.851 34.3056 521.832 34.3336 521.819C34.3476 521.812 34.3588 521.806 34.3672 521.802C34.3713 521.8 34.3747 521.799 34.3774 521.797C34.3788 521.797 34.3799 521.796 34.3809 521.796C34.3814 521.795 34.3818 521.795 34.3822 521.795C34.3824 521.795 34.3827 521.795 34.3828 521.795C34.383 521.795 34.3833 521.794 33.5 520C32.6167 518.206 32.617 518.205 32.6172 518.205C32.6172 518.205 32.6174 518.205 32.6175 518.205C32.6177 518.205 32.6179 518.205 32.618 518.205C32.6182 518.205 32.6183 518.205 32.6181 518.205C32.6179 518.205 32.6169 518.206 32.6152 518.206C32.6119 518.208 32.6058 518.211 32.597 518.215C32.5794 518.224 32.5513 518.237 32.5135 518.255C32.4379 518.29 32.3243 518.343 32.1806 518.407C31.8919 518.535 31.4889 518.706 31.0336 518.876C30.0479 519.243 29.0893 519.5 28.5 519.5V523.5Z" fill="#333333" mask="url(#path-73-inside-10_5415_12902)"/>
<circle cx="61" cy="532" r="22" stroke="#333333" stroke-width="2"/>
<path d="M51.5 552H38V562H84V552H70.5" stroke="#333333" stroke-width="2"/>
<circle cx="61" cy="532" r="15" stroke="#333333" stroke-width="2"/>
<path d="M54 454.5L56 427.5H23L28 480M19 480H77.5" stroke="#333333" stroke-width="2"/>
<mask id="path-79-inside-11_5415_12902" fill="white">
<path fill-rule="evenodd" clip-rule="evenodd" d="M75 454H39V458.75V463.5C39 470.033 42.4808 476.402 47.6892 480H66.3108C71.5192 476.402 75 470.033 75 463.5V454Z"/>
</mask>
<path d="M39 454V452H37V454H39ZM75 454H77V452H75V454ZM47.6892 480L46.5524 481.645L47.0655 482H47.6892V480ZM66.3108 480V482H66.9345L67.4476 481.645L66.3108 480ZM39 456H75V452H39V456ZM41 458.75V454H37V458.75H41ZM41 463.5V458.75H37V463.5H41ZM48.826 478.355C44.1434 475.119 41 469.359 41 463.5H37C37 470.708 40.8183 477.684 46.5524 481.645L48.826 478.355ZM66.3108 478H47.6892V482H66.3108V478ZM73 463.5C73 469.359 69.8566 475.119 65.174 478.355L67.4476 481.645C73.1817 477.684 77 470.708 77 463.5H73ZM73 454V463.5H77V454H73Z" fill="#333333" mask="url(#path-79-inside-11_5415_12902)"/>
<path d="M74.4998 467C78.6419 467 82.4998 464.314 82.4998 461C82.4998 457.686 79.1419 455 74.9998 455M64.4998 431.5C65.6665 432.167 67.5998 434.4 65.9998 438C63.9998 442.5 63.4998 443 65.9998 447" stroke="#333333" stroke-width="2" stroke-linecap="round"/>
<path d="M24.5 439.5H55" stroke="#333333" stroke-width="2"/>
<path fill-rule="evenodd" clip-rule="evenodd" d="M45.8936 346V338H56.8936V346H45.8936ZM43.8936 337C43.8936 336.448 44.3413 336 44.8936 336H57.8936C58.4458 336 58.8936 336.448 58.8936 337V346.627L58.9849 346.694C62.829 349.513 66.5308 353.344 69.4032 357.493C72.2688 361.632 74.3588 366.16 74.8858 370.376C75.3954 374.453 75.5184 382.645 75.456 390.133C75.4247 393.891 75.3464 397.494 75.2445 400.348C75.1438 403.167 75.0181 405.336 74.8799 406.164C74.3811 409.157 71.7776 410.283 70.5579 410.486L70.4889 410.498L70.4189 410.5C63.8319 410.666 53.8503 410.867 45.3128 410.925C41.0453 410.954 37.1309 410.948 34.1796 410.884C32.7055 410.852 31.4601 410.806 30.5267 410.741C30.0613 410.709 29.6592 410.671 29.3389 410.626C29.0688 410.588 28.7128 410.528 28.4462 410.394C28.0441 410.193 27.8001 409.832 27.6535 409.564C27.4912 409.267 27.3558 408.91 27.239 408.524C27.0043 407.749 26.8043 406.722 26.6372 405.512C26.3016 403.083 26.0814 399.79 26.0185 396.017C25.8927 388.469 26.395 378.903 27.9086 370.326C30.2748 356.918 39.1349 349.336 43.8936 346.877V337ZM29.8782 370.674C32.1756 357.655 40.9451 350.519 45.1178 348.5H58.0637C61.627 351.163 65.072 354.751 67.7589 358.632C70.5183 362.618 72.4283 366.84 72.9013 370.624C73.3917 374.547 73.5187 382.605 73.4561 390.117C73.4249 393.859 73.3469 397.444 73.2458 400.277C73.1433 403.146 73.0191 405.164 72.9072 405.836C72.6138 407.596 71.0913 408.344 70.2914 408.502C63.711 408.668 53.7869 408.867 45.2991 408.925C41.0374 408.954 37.1455 408.948 34.2228 408.885C32.7599 408.853 31.5514 408.807 30.6652 408.746C30.2207 408.715 29.8715 408.681 29.6181 408.645C29.5274 408.633 29.4602 408.621 29.4123 408.612L29.4082 408.604C29.3376 408.475 29.2493 408.262 29.1532 407.945C28.9622 407.314 28.7793 406.403 28.6184 405.238C28.2976 402.917 28.0804 399.71 28.0183 395.983C27.894 388.531 28.3917 379.097 29.8782 370.674ZM29.4624 408.691L29.4647 408.694C29.4654 408.695 29.4657 408.695 29.4657 408.695L29.4645 408.693L29.4624 408.691ZM64.1031 375.391C64.2778 373.25 63.8583 370.394 62.7057 367.388C61.5531 364.381 59.956 361.977 58.3943 360.501C56.7165 358.916 55.6303 358.855 55.2119 359.015C54.7935 359.176 54.0262 359.947 53.8385 362.248C53.6638 364.39 54.0833 367.245 55.2359 370.251C56.3885 373.258 57.9856 375.662 59.5472 377.138C61.2251 378.723 62.3113 378.784 62.7297 378.624C63.1481 378.463 63.9153 377.692 64.1031 375.391ZM63.4456 380.491C66.5397 379.305 67.0445 373.118 64.5731 366.672C62.1017 360.226 57.59 355.962 54.4959 357.148C51.4018 358.334 50.897 364.521 53.3684 370.967C55.8398 377.414 60.3515 381.677 63.4456 380.491ZM39.8936 400.5H62.8936V398.5H39.8936V400.5Z" fill="#333333"/>
<path d="M20.158 277.231C19.358 282.431 17.8247 289.397 17.158 292.231C16.658 296.397 17.058 306.331 22.658 312.731C29.658 320.731 45.658 322.731 56.658 306.731C67.658 290.731 80.658 290.731 82.658 281.731C84.658 272.731 78.658 267.731 70.658 265.231C62.658 262.731 46.658 264.731 37.658 265.231C28.658 265.731 21.158 270.731 20.158 277.231Z" stroke="#333333" stroke-width="2"/>
<path d="M78.2189 208.161C81.4998 205 82.4998 202.75 82.4998 198C82.4998 191.348 77.6513 186.5 70.9998 186.5C68.2879 186.5 66.7419 186.896 64.7288 188.409" stroke="#333333" stroke-width="2" stroke-linecap="round"/>
<path d="M41.6058 198.044C41.6058 191.392 36.2136 186 29.562 186C22.9104 186 18 191.392 18 198.044C18 201.763 19.2044 205.089 21.854 207.298" stroke="#333333" stroke-width="2"/>
<path d="M55.0947 198.044C55.0947 191.392 49.7025 186 43.0509 186C40.5519 186 38.2307 186.761 36.3064 188.064" stroke="#333333" stroke-width="2"/>
<path d="M69.5475 198.044C69.5475 191.392 64.1554 186 57.5038 186C54.792 186 52.2895 186.896 50.2764 188.409" stroke="#333333" stroke-width="2"/>
<path d="M21.3723 206.715V229.175C21.3723 231.936 23.6109 234.175 26.3723 234.175H73.2188C75.9802 234.175 78.2188 231.936 78.2188 229.175V208.16" stroke="#333333" stroke-width="2"/>
<rect x="26" y="40.8828" width="49" height="37" fill="#D0A6FD" stroke="#5F0080" stroke-width="2"/>
<rect x="22" y="29.8828" width="57" height="14" fill="#D0A6FD" stroke="#5F0080" stroke-width="2"/>
<line x1="51" y1="28.8828" x2="51" y2="77.8828" stroke="#5F0080" stroke-width="2"/>
<path d="M41.8916 19.3828C47.4916 20.9828 49.8916 26.0494 50.3916 28.3828L50.5 29.8828H41.8916C40.0583 28.8828 37 28.3828 35.3916 25.3828C34.5398 23.7939 34.8916 17.3828 41.8916 19.3828Z" fill="#FCF97C" stroke="#5F0080" stroke-width="2"/>
<path d="M59.6084 19.3828C54.0084 20.9828 51.6084 26.0494 51.1084 28.3828L51 29.8828H59.6084C61.4417 28.8828 64.5 28.3828 66.1084 25.3828C66.9602 23.7939 66.6084 17.3828 59.6084 19.3828Z" fill="#FCF97C" stroke="#5F0080" stroke-width="2"/>
<path d="M35 107.5H46.5" stroke="#333333" stroke-width="2"/>
<path d="M56 154.5H69" stroke="#333333" stroke-width="2"/>
<mask id="path-97-inside-12_5415_12902" fill="white">
<path fill-rule="evenodd" clip-rule="evenodd" d="M47 137C46.4477 137 46 137.448 46 138V140C46 146.606 49.6575 152.333 55 155.146V164H70V155.146C75.3425 152.333 79 146.606 79 140V138C79 137.448 78.5523 137 78 137H47Z"/>
</mask>
<path d="M55 155.146H57V153.939L55.932 153.377L55 155.146ZM55 164H53V166H55V164ZM70 164V166H72V164H70ZM70 155.146L69.068 153.377L68 153.939V155.146H70ZM48 138C48 138.552 47.5523 139 47 139V135C45.3431 135 44 136.343 44 138H48ZM48 140V138H44V140H48ZM55.932 153.377C51.2405 150.906 48 145.857 48 140H44C44 147.355 48.0745 153.759 54.068 156.916L55.932 153.377ZM57 164V155.146H53V164H57ZM70 162H55V166H70V162ZM68 155.146V164H72V155.146H68ZM77 140C77 145.857 73.7595 150.906 69.068 153.377L70.932 156.916C76.9255 153.759 81 147.355 81 140H77ZM77 138V140H81V138H77ZM78 139C77.4477 139 77 138.552 77 138H81C81 136.343 79.6569 135 78 135V139ZM47 139H78V135H47V139Z" fill="#333333" mask="url(#path-97-inside-12_5415_12902)"/>
<path d="M57.5 137.5C57.6667 137.167 57.6 135.4 56 131C54 125.5 47.5 113 47 109C46.75 107 46.6961 104.248 50 100C53.3039 95.7521 49.5 95 46.5 95C42 95 38.2 95 35 95C31 95 29 96.5 31.5 100.5C33.2989 103.378 34.8334 107.167 35 109C35.5 115.5 26 125.5 24.5 137.5C23 149.5 26 155.5 31.5 163M21 163H77.5" stroke="#333333" stroke-width="2"/>
<path d="M63 681C63 685.971 59.4183 690 55 690C50.5817 690 47 685.971 47 681" stroke="#333333" stroke-width="2"/>
<line x1="47" y1="682" x2="47" y2="666" stroke="#333333" stroke-width="2"/>
<line x1="63" y1="682" x2="63" y2="666" stroke="#333333" stroke-width="2"/>
<path d="M56 667L56 666L54 666L54 667L56 667ZM54 728C54 728.552 54.4477 729 55 729C55.5523 729 56 728.552 56 728L54 728ZM54 667L54 728L56 728L56 667L54 667Z" fill="#333333"/>
<path d="M81 665L81 726" stroke="#333333" stroke-width="2" stroke-linecap="round"/>
<path d="M80.9999 665C71.9999 668.5 64.5 690.5 80.9999 699.5" stroke="#333333" stroke-width="2"/>
<path d="M37.9999 677.5C37.9999 684.332 33.7864 689 28.9999 689C24.2135 689 20 684.332 20 677.5C20 674.109 21.0596 670.943 22.7364 668.647C24.4161 666.348 26.6452 665 28.9999 665C31.3547 665 33.5838 666.348 35.2635 668.647C36.9403 670.943 37.9999 674.109 37.9999 677.5Z" stroke="#333333" stroke-width="2"/>
<path d="M30 689L30 688L28 688L28 689L30 689ZM28 728C28 728.552 28.4477 729 29 729C29.5523 729 30 728.552 30 728L28 728ZM28 689L28 728L30 728L30 689L28 689Z" fill="#333333"/>
</svg>
