<svg width="101" height="1797" viewBox="0 0 101 1797" fill="none" xmlns="http://www.w3.org/2000/svg">
<circle cx="33.0137" cy="1734.5" r="1.5" fill="#333333"/>
<path d="M22.0157 1727.5C24.849 1728 33.2157 1728.5 44.0157 1726.5C57.5157 1724 71.0157 1725 77.0157 1741C83.0157 1757 77.0157 1767 70.0157 1774C63.0157 1781 44.5157 1781 38.0157 1779.5C31.5157 1778 29.0157 1775 29.0157 1774C29.0157 1773.2 32.0157 1767 33.5157 1764L50.5157 1771C53.8491 1769.5 60.4157 1765 60.0157 1759C59.5157 1751.5 54.5157 1747.5 48.5157 1747C42.5157 1746.5 29.5158 1748 24.5159 1738.5C20.8463 1731.53 22.3892 1725.44 22.0157 1727.5ZM22.0157 1727.5C22.0158 1724.5 24.8159 1718.6 36.0159 1719C47.2159 1719.4 54.6826 1717.5 57.0159 1716.5" stroke="#333333" stroke-width="2.5" stroke-linecap="round"/>
<path d="M60.0137 1726C58.0137 1730.67 54.0137 1741.7 54.0137 1748.5M60.0137 1757C64.1803 1753.5 73.6137 1746 78.0137 1744M59.0137 1764.5L71.5137 1772M50.5137 1771L51.0137 1780" stroke="#333333" stroke-width="2.5" stroke-linecap="round"/>
<rect x="14.7678" y="1669.86" width="53.8689" height="22.2599" rx="11.13" transform="rotate(-45 14.7678 1669.86)" stroke="#333333" stroke-width="2.5"/>
<circle cx="74.5" cy="1672.5" r="12.25" stroke="#333333" stroke-width="2.5"/>
<circle cx="51.5" cy="1690.5" r="8.25" stroke="#333333" stroke-width="2.5"/>
<line x1="34.3897" y1="1649.88" x2="50.3897" y2="1665.88" stroke="#333333" stroke-width="2.5"/>
<line x1="62" y1="1672.75" x2="87" y2="1672.75" stroke="#333333" stroke-width="2.5"/>
<path d="M61.5 1581C66.3333 1579.17 76.9 1574.8 80.5 1572C85 1568.5 83.5 1564 78.5 1561.5C74.5 1559.5 66.8333 1562.33 63.5 1564L55.5 1567.36M64 1574C61.6667 1582 56.6 1598.6 55 1601C53 1604 51 1605.5 48 1606C45.6 1606.4 43 1606.17 42 1606L44.73 1586.5M45.5 1581L44.73 1586.5M44.73 1586.5C41.82 1588.17 35.1 1591.3 31.5 1590.5C27 1589.5 19 1581 18.5 1578.5C19.6667 1576.67 23.4 1574.1 29 1578.5L43 1572.62M43 1572.62L31.5 1561C31.1667 1560.67 30.9 1559.7 32.5 1558.5C34.5 1557 39 1555.5 40.5 1556.5C41.7 1557.3 51 1564.07 55.5 1567.36M43 1572.62L55.5 1567.36" stroke="#333333" stroke-width="2.5"/>
<line x1="82" y1="1617.25" x2="17" y2="1617.25" stroke="#333333" stroke-width="2.5"/>
<path d="M40 1483H38.75V1483.03L38.7514 1483.06L40 1483ZM43.8979 1495.01L42.9249 1495.8L42.9249 1495.8L43.8979 1495.01ZM44.6245 1495.93L43.6325 1496.69L43.6737 1496.74L43.7203 1496.79L44.6245 1495.93ZM46.9944 1501.79L45.7454 1501.74L45.7431 1501.8L45.7461 1501.85L46.9944 1501.79ZM22.0056 1501.79L23.2539 1501.85L23.2569 1501.8L23.2546 1501.74L22.0056 1501.79ZM24.3755 1495.93L25.2797 1496.79L25.3263 1496.74L25.3675 1496.69L24.3755 1495.93ZM25.1021 1495.01L24.1292 1494.23L24.1292 1494.23L25.1021 1495.01ZM29 1483L30.2486 1483.06L30.25 1483.03V1483H29ZM31 1470.75C29.2051 1470.75 27.75 1472.21 27.75 1474H30.25C30.25 1473.59 30.5858 1473.25 31 1473.25V1470.75ZM38 1470.75H31V1473.25H38V1470.75ZM41.25 1474C41.25 1472.21 39.7949 1470.75 38 1470.75V1473.25C38.4142 1473.25 38.75 1473.59 38.75 1474H41.25ZM41.25 1483V1474H38.75V1483H41.25ZM44.8708 1494.23C43.9498 1493.08 43.1747 1492.12 42.5529 1490.54C41.9239 1488.96 41.4265 1486.68 41.2486 1482.94L38.7514 1483.06C38.9368 1486.95 39.4623 1489.53 40.2284 1491.46C41.0018 1493.42 41.9941 1494.64 42.9249 1495.8L44.8708 1494.23ZM45.6165 1495.17C45.3623 1494.84 45.1097 1494.52 44.8708 1494.23L42.9249 1495.8C43.1664 1496.09 43.4 1496.38 43.6325 1496.69L45.6165 1495.17ZM48.25 1501.5C48.25 1499.05 47.2082 1496.82 45.5287 1495.06L43.7203 1496.79C45.0295 1498.16 45.75 1499.79 45.75 1501.5H48.25ZM48.2435 1501.84C48.2478 1501.72 48.25 1501.61 48.25 1501.5H45.75C45.75 1501.58 45.7484 1501.66 45.7454 1501.74L48.2435 1501.84ZM48.25 1502C48.25 1501.91 48.2475 1501.81 48.2427 1501.72L45.7461 1501.85C45.7487 1501.9 45.75 1501.95 45.75 1502H48.25ZM48.25 1538V1502H45.75V1538H48.25ZM43 1543.25C45.8995 1543.25 48.25 1540.9 48.25 1538H45.75C45.75 1539.52 44.5188 1540.75 43 1540.75V1543.25ZM26 1543.25H43V1540.75H26V1543.25ZM20.75 1538C20.75 1540.9 23.1005 1543.25 26 1543.25V1540.75C24.4812 1540.75 23.25 1539.52 23.25 1538H20.75ZM20.75 1502V1538H23.25V1502H20.75ZM20.7573 1501.72C20.7525 1501.81 20.75 1501.91 20.75 1502H23.25C23.25 1501.95 23.2513 1501.9 23.2539 1501.85L20.7573 1501.72ZM20.75 1501.5C20.75 1501.61 20.7522 1501.72 20.7565 1501.84L23.2546 1501.74C23.2516 1501.66 23.25 1501.58 23.25 1501.5H20.75ZM23.4713 1495.06C21.7918 1496.82 20.75 1499.05 20.75 1501.5H23.25C23.25 1499.79 23.9705 1498.16 25.2797 1496.79L23.4713 1495.06ZM24.1292 1494.23C23.8903 1494.52 23.6377 1494.84 23.3835 1495.17L25.3675 1496.69C25.6 1496.38 25.8336 1496.09 26.0751 1495.8L24.1292 1494.23ZM27.7514 1482.94C27.5735 1486.68 27.0761 1488.96 26.4471 1490.54C25.8253 1492.12 25.0502 1493.08 24.1292 1494.23L26.0751 1495.8C27.0059 1494.64 27.9982 1493.42 28.7716 1491.46C29.5377 1489.53 30.0632 1486.95 30.2486 1483.06L27.7514 1482.94ZM27.75 1474V1483H30.25V1474H27.75Z" fill="#333333"/>
<mask id="path-12-inside-1_5415_12902" fill="white">
<path fill-rule="evenodd" clip-rule="evenodd" d="M57.8872 1487C57.381 1487 56.9546 1487.38 56.8943 1487.88L54.2244 1510.13C54.0771 1510.9 54 1511.69 54 1512.5C54 1519.4 59.5964 1525 66.5 1525C73.4036 1525 79 1519.4 79 1512.5C79 1511.51 78.8848 1510.55 78.6671 1509.62L75.6206 1487.86C75.5514 1487.37 75.129 1487 74.6302 1487H57.8872Z"/>
</mask>
<path d="M56.8943 1487.88L59.3765 1488.18L59.3765 1488.18L56.8943 1487.88ZM54.2244 1510.13L56.6796 1510.6L56.6962 1510.51L56.7066 1510.43L54.2244 1510.13ZM78.6671 1509.62L76.1912 1509.97L76.2072 1510.08L76.2337 1510.2L78.6671 1509.62ZM75.6206 1487.86L78.0964 1487.51L78.0964 1487.51L75.6206 1487.86ZM59.3765 1488.18C59.286 1488.93 58.6465 1489.5 57.8872 1489.5V1484.5C56.1155 1484.5 54.6232 1485.82 54.4121 1487.58L59.3765 1488.18ZM56.7066 1510.43L59.3765 1488.18L54.4121 1487.58L51.7422 1509.83L56.7066 1510.43ZM56.5 1512.5C56.5 1511.85 56.562 1511.21 56.6796 1510.6L51.7693 1509.66C51.5923 1510.58 51.5 1511.53 51.5 1512.5H56.5ZM66.5 1522.5C60.9772 1522.5 56.5 1518.02 56.5 1512.5H51.5C51.5 1520.78 58.2157 1527.5 66.5 1527.5V1522.5ZM76.5 1512.5C76.5 1518.02 72.0228 1522.5 66.5 1522.5V1527.5C74.7843 1527.5 81.5 1520.78 81.5 1512.5H76.5ZM76.2337 1510.2C76.4075 1510.93 76.5 1511.7 76.5 1512.5H81.5C81.5 1511.32 81.3621 1510.16 81.1004 1509.05L76.2337 1510.2ZM73.1447 1488.21L76.1912 1509.97L81.1429 1509.28L78.0964 1487.51L73.1447 1488.21ZM74.6302 1489.5C73.8822 1489.5 73.2485 1488.95 73.1447 1488.21L78.0964 1487.51C77.8544 1485.79 76.3757 1484.5 74.6302 1484.5V1489.5ZM57.8872 1489.5H74.6302V1484.5H57.8872V1489.5Z" fill="#333333" mask="url(#path-12-inside-1_5415_12902)"/>
<line x1="67.25" y1="1525" x2="67.25" y2="1542" stroke="#333333" stroke-width="2.5"/>
<line x1="77" y1="1541.25" x2="57" y2="1541.25" stroke="#333333" stroke-width="2.5"/>
<line x1="77" y1="1510.25" x2="55" y2="1510.25" stroke="#333333" stroke-width="2.5"/>
<mask id="path-17-inside-2_5415_12902" fill="white">
<path fill-rule="evenodd" clip-rule="evenodd" d="M28 1401C26.8954 1401 26 1401.9 26 1403V1411.25C26 1411.66 25.7454 1412.02 25.3718 1412.2C21.6091 1413.94 19 1417.76 19 1422.18V1456C19 1457.1 19.8954 1458 21 1458H49C50.1046 1458 51 1457.1 51 1456V1422.18C51 1417.41 47.9647 1413.35 43.7204 1411.82C43.2993 1411.67 43 1411.28 43 1410.84V1403C43 1401.9 42.1046 1401 41 1401H28Z"/>
</mask>
<path d="M28.5 1403C28.5 1403.28 28.2761 1403.5 28 1403.5V1398.5C25.5147 1398.5 23.5 1400.51 23.5 1403H28.5ZM28.5 1411.25V1403H23.5V1411.25H28.5ZM21.5 1422.18C21.5 1418.77 23.5117 1415.82 26.4249 1414.46L24.3187 1409.93C19.7065 1412.07 16.5 1416.75 16.5 1422.18H21.5ZM21.5 1456V1422.18H16.5V1456H21.5ZM21 1455.5C21.2761 1455.5 21.5 1455.72 21.5 1456H16.5C16.5 1458.49 18.5147 1460.5 21 1460.5V1455.5ZM49 1455.5H21V1460.5H49V1455.5ZM48.5 1456C48.5 1455.72 48.7239 1455.5 49 1455.5V1460.5C51.4853 1460.5 53.5 1458.49 53.5 1456H48.5ZM48.5 1422.18V1456H53.5V1422.18H48.5ZM42.875 1414.18C46.1582 1415.36 48.5 1418.5 48.5 1422.18H53.5C53.5 1416.32 49.7712 1411.34 44.5658 1409.47L42.875 1414.18ZM40.5 1403V1410.84H45.5V1403H40.5ZM41 1403.5C40.7239 1403.5 40.5 1403.28 40.5 1403H45.5C45.5 1400.51 43.4853 1398.5 41 1398.5V1403.5ZM28 1403.5H41V1398.5H28V1403.5ZM44.5658 1409.47C45.0405 1409.64 45.5 1410.13 45.5 1410.84H40.5C40.5 1412.44 41.558 1413.7 42.875 1414.18L44.5658 1409.47ZM23.5 1411.25C23.5 1410.6 23.8919 1410.13 24.3187 1409.93L26.4249 1414.46C27.5988 1413.92 28.5 1412.72 28.5 1411.25H23.5Z" fill="#333333" mask="url(#path-17-inside-2_5415_12902)"/>
<line x1="27" y1="1391.75" x2="43" y2="1391.75" stroke="#333333" stroke-width="2.5"/>
<line x1="34.75" y1="1402" x2="34.75" y2="1391" stroke="#333333" stroke-width="2.5"/>
<line x1="26" y1="1412.75" x2="44" y2="1412.75" stroke="#333333" stroke-width="2.5"/>
<path d="M59.6433 1446.09L57.3196 1403.25H80.6817L78.4029 1446.09C78.3534 1447.02 77.5857 1447.75 76.6553 1447.75H61.3907C60.4611 1447.75 59.6936 1447.02 59.6433 1446.09Z" stroke="#333333" stroke-width="2.5"/>
<mask id="path-23-inside-3_5415_12902" fill="white">
<rect x="62" y="1447" width="15" height="12" rx="2"/>
</mask>
<rect x="62" y="1447" width="15" height="12" rx="2" stroke="#333333" stroke-width="5" mask="url(#path-23-inside-3_5415_12902)"/>
<mask id="path-24-inside-4_5415_12902" fill="white">
<path fill-rule="evenodd" clip-rule="evenodd" d="M57.4095 1322C64.1418 1322 68.7421 1326.29 70.5513 1332.36C70.8927 1333.22 71.0935 1334.15 71.1874 1335.07C71.2144 1335.34 71.239 1335.6 71.2612 1335.87C71.3596 1336.72 71.4095 1337.6 71.4095 1338.5C71.4095 1338.55 71.4093 1338.59 71.409 1338.64C71.8368 1357.87 59.5409 1371 51.4093 1371C48.913 1371 46.5502 1370.41 44.4447 1369.36C43.3576 1368.82 42.0623 1368.82 40.9752 1369.36C38.8697 1370.41 36.5069 1371 34.0105 1371C25.8766 1371 13.576 1357.87 14.0112 1338.62C14.011 1338.58 14.0108 1338.54 14.0108 1338.5C14.0108 1337.61 14.0601 1336.74 14.1573 1335.88C14.1799 1335.61 14.2049 1335.35 14.2325 1335.07C14.3265 1334.15 14.5279 1333.22 14.8706 1332.36C16.6807 1326.29 21.2803 1322 28.0108 1322C32.3078 1322 36.6821 1323.75 40.0424 1326.59C41.5345 1327.85 43.8858 1327.85 45.3779 1326.59C48.7382 1323.75 53.1125 1322 57.4095 1322Z"/>
</mask>
<path d="M70.5513 1332.36L68.1553 1333.07L68.1863 1333.18L68.2262 1333.28L70.5513 1332.36ZM71.1874 1335.07L68.7002 1335.33L68.7002 1335.33L71.1874 1335.07ZM71.2612 1335.87L68.77 1336.08L68.7732 1336.12L68.7775 1336.15L71.2612 1335.87ZM71.409 1338.64L68.909 1338.62L68.9088 1338.65L68.9096 1338.69L71.409 1338.64ZM14.0112 1338.62L16.5106 1338.68L16.5114 1338.64L16.5112 1338.6L14.0112 1338.62ZM14.1573 1335.88L16.6412 1336.17L16.6454 1336.13L16.6486 1336.09L14.1573 1335.88ZM14.2325 1335.07L16.7196 1335.33L16.7196 1335.33L14.2325 1335.07ZM14.8706 1332.36L17.195 1333.28L17.2351 1333.17L17.2663 1333.07L14.8706 1332.36ZM45.3779 1326.59L43.7633 1324.68L45.3779 1326.59ZM44.4447 1369.36L43.3278 1371.6L43.3278 1371.6L44.4447 1369.36ZM40.9752 1369.36L39.8582 1367.12L40.9752 1369.36ZM72.9472 1331.65C70.8831 1324.72 65.4467 1319.5 57.4095 1319.5V1324.5C62.837 1324.5 66.6012 1327.86 68.1553 1333.07L72.9472 1331.65ZM73.6745 1334.82C73.5621 1333.72 73.3174 1332.56 72.8763 1331.44L68.2262 1333.28C68.4679 1333.89 68.6249 1334.59 68.7002 1335.33L73.6745 1334.82ZM73.7523 1335.66C73.7289 1335.38 73.703 1335.1 73.6745 1334.82L68.7002 1335.33C68.7258 1335.58 68.749 1335.83 68.77 1336.08L73.7523 1335.66ZM73.9095 1338.5C73.9095 1337.51 73.8544 1336.54 73.7449 1335.58L68.7775 1336.15C68.8647 1336.91 68.9095 1337.7 68.9095 1338.5H73.9095ZM73.9089 1338.66C73.9093 1338.6 73.9095 1338.55 73.9095 1338.5H68.9095C68.9095 1338.54 68.9094 1338.58 68.909 1338.62L73.9089 1338.66ZM51.4093 1373.5C56.6609 1373.5 62.4226 1369.44 66.6574 1363.48C70.9996 1357.36 74.1344 1348.75 73.9084 1338.58L68.9096 1338.69C69.1113 1347.76 66.3121 1355.33 62.5804 1360.59C58.7414 1365.99 54.2893 1368.5 51.4093 1368.5V1373.5ZM43.3278 1371.6C45.7704 1372.82 48.5146 1373.5 51.4093 1373.5V1368.5C49.3114 1368.5 47.33 1368.01 45.5616 1367.12L43.3278 1371.6ZM39.8582 1367.12C38.0898 1368.01 36.1084 1368.5 34.0105 1368.5V1373.5C36.9053 1373.5 39.6495 1372.82 42.0921 1371.6L39.8582 1367.12ZM34.0105 1368.5C31.1297 1368.5 26.6759 1365.99 22.8362 1360.58C19.104 1355.32 16.3054 1347.75 16.5106 1338.68L11.5119 1338.56C11.2819 1348.73 14.416 1357.36 18.7587 1363.47C22.994 1369.44 28.7575 1373.5 34.0105 1373.5V1368.5ZM11.5108 1338.5C11.5108 1338.55 11.511 1338.59 11.5113 1338.64L16.5112 1338.6C16.5109 1338.57 16.5108 1338.53 16.5108 1338.5H11.5108ZM11.6734 1335.6C11.5652 1336.55 11.5108 1337.52 11.5108 1338.5H16.5108C16.5108 1337.7 16.555 1336.92 16.6412 1336.17L11.6734 1335.6ZM16.6486 1336.09C16.6699 1335.84 16.6935 1335.58 16.7196 1335.33L11.7453 1334.82C11.7163 1335.11 11.6899 1335.39 11.6661 1335.67L16.6486 1336.09ZM16.7196 1335.33C16.795 1334.59 16.9525 1333.89 17.195 1333.28L12.5461 1331.43C12.1034 1332.55 11.858 1333.71 11.7453 1334.82L16.7196 1335.33ZM28.0108 1319.5C19.9759 1319.5 14.5402 1324.72 12.4748 1331.64L17.2663 1333.07C18.8212 1327.86 22.5847 1324.5 28.0108 1324.5V1319.5ZM41.657 1324.68C37.8939 1321.5 32.9596 1319.5 28.0108 1319.5V1324.5C31.656 1324.5 35.4703 1326 38.4278 1328.5L41.657 1324.68ZM57.4095 1319.5C52.4607 1319.5 47.5264 1321.5 43.7633 1324.68L46.9925 1328.5C49.9501 1326 53.7644 1324.5 57.4095 1324.5V1319.5ZM38.4278 1328.5C40.852 1330.55 44.5684 1330.55 46.9925 1328.5L43.7633 1324.68C43.2032 1325.15 42.2171 1325.15 41.657 1324.68L38.4278 1328.5ZM45.5616 1367.12C43.7713 1366.23 41.6486 1366.23 39.8582 1367.12L42.0921 1371.6C42.476 1371.4 42.9438 1371.4 43.3278 1371.6L45.5616 1367.12Z" fill="#333333" mask="url(#path-24-inside-4_5415_12902)"/>
<path d="M43 1317L43 1328" stroke="#333333" stroke-width="2.5"/>
<path d="M73.9097 1326V1343.5M87.9097 1326V1343.5M80.9097 1323V1349.5M80.9097 1370.5V1349.5M73.9097 1343.5V1352.5L80.9097 1358.5L87.9097 1352.5V1343.5M73.9097 1343.5L80.9097 1349.5M80.9097 1349.5L87.9097 1343.5M73.9097 1333.5L80.9097 1339.5L87.9097 1333.5" stroke="#333333" stroke-width="2.5"/>
<mask id="path-28-inside-5_5415_12902" fill="white">
<path fill-rule="evenodd" clip-rule="evenodd" d="M44.2477 1241.86C43.6569 1241.54 43.4805 1240.74 43.8324 1240.16C44.5732 1238.95 45 1237.53 45 1236C45 1231.58 41.4183 1228 37 1228C32.5817 1228 29 1231.58 29 1236C29 1237.53 29.4268 1238.95 30.1676 1240.16C30.5195 1240.74 30.3431 1241.54 29.7523 1241.86C25.7802 1244.06 22.9101 1248.01 22.1813 1252.66C22.0631 1253.09 22 1253.54 22 1254V1255V1293C22 1295.76 24.2386 1298 27 1298H47C49.7614 1298 52 1295.76 52 1293V1255V1254C52 1253.54 51.9369 1253.09 51.8187 1252.66C51.0899 1248.01 48.2198 1244.06 44.2477 1241.86Z"/>
</mask>
<path d="M22.1813 1252.66L24.5904 1253.33L24.6289 1253.19L24.6512 1253.05L22.1813 1252.66ZM51.8187 1252.66L49.3488 1253.05L49.3711 1253.19L49.4096 1253.33L51.8187 1252.66ZM30.1676 1240.16L28.034 1241.47L30.1676 1240.16ZM29.7523 1241.86L28.5425 1239.68L29.7523 1241.86ZM43.8324 1240.16L45.966 1241.47L43.8324 1240.16ZM44.2477 1241.86L43.038 1244.05L44.2477 1241.86ZM42.5 1236C42.5 1237.05 42.2068 1238.03 41.6988 1238.86L45.966 1241.47C46.9395 1239.87 47.5 1238 47.5 1236H42.5ZM37 1230.5C40.0376 1230.5 42.5 1232.96 42.5 1236H47.5C47.5 1230.2 42.799 1225.5 37 1225.5V1230.5ZM31.5 1236C31.5 1232.96 33.9624 1230.5 37 1230.5V1225.5C31.201 1225.5 26.5 1230.2 26.5 1236H31.5ZM32.3012 1238.86C31.7932 1238.03 31.5 1237.05 31.5 1236H26.5C26.5 1238 27.0605 1239.87 28.034 1241.47L32.3012 1238.86ZM24.6512 1253.05C25.2574 1249.18 27.6469 1245.88 30.962 1244.05L28.5425 1239.68C23.9135 1242.24 20.5629 1246.84 19.7113 1252.27L24.6512 1253.05ZM24.5 1254C24.5 1253.76 24.532 1253.54 24.5904 1253.33L19.7721 1251.99C19.5943 1252.63 19.5 1253.31 19.5 1254H24.5ZM24.5 1255V1254H19.5V1255H24.5ZM24.5 1293V1255H19.5V1293H24.5ZM27 1295.5C25.6193 1295.5 24.5 1294.38 24.5 1293H19.5C19.5 1297.14 22.8579 1300.5 27 1300.5V1295.5ZM47 1295.5H27V1300.5H47V1295.5ZM49.5 1293C49.5 1294.38 48.3807 1295.5 47 1295.5V1300.5C51.1421 1300.5 54.5 1297.14 54.5 1293H49.5ZM49.5 1255V1293H54.5V1255H49.5ZM49.5 1254V1255H54.5V1254H49.5ZM49.4096 1253.33C49.468 1253.54 49.5 1253.76 49.5 1254H54.5C54.5 1253.31 54.4057 1252.63 54.2279 1251.99L49.4096 1253.33ZM43.038 1244.05C46.3531 1245.88 48.7426 1249.18 49.3488 1253.05L54.2887 1252.27C53.4371 1246.84 50.0865 1242.24 45.4575 1239.68L43.038 1244.05ZM28.034 1241.47C27.8451 1241.16 27.8125 1240.82 27.8808 1240.53C27.9508 1240.24 28.1548 1239.89 28.5425 1239.68L30.962 1244.05C32.9068 1242.98 33.3284 1240.54 32.3012 1238.86L28.034 1241.47ZM41.6988 1238.86C40.6716 1240.54 41.0932 1242.98 43.038 1244.05L45.4575 1239.68C45.8452 1239.89 46.0492 1240.24 46.1192 1240.53C46.1875 1240.82 46.1549 1241.16 45.966 1241.47L41.6988 1238.86Z" fill="#333333" mask="url(#path-28-inside-5_5415_12902)"/>
<line x1="23" y1="1252.75" x2="51" y2="1252.75" stroke="#333333" stroke-width="2.5"/>
<line x1="23" y1="1267.75" x2="37" y2="1267.75" stroke="#333333" stroke-width="2.5"/>
<line x1="23" y1="1280.75" x2="37" y2="1280.75" stroke="#333333" stroke-width="2.5"/>
<mask id="path-33-inside-6_5415_12902" fill="white">
<path fill-rule="evenodd" clip-rule="evenodd" d="M79 1242C79 1246.69 76.6464 1250.75 73.2155 1252.72C72.865 1252.93 72.6421 1253.3 72.667 1253.7L74.95 1290.69C74.983 1290.96 75 1291.23 75 1291.5C75 1295.09 72.0899 1298 68.5 1298C64.9101 1298 62 1295.09 62 1291.5C62 1291.17 62.0245 1290.85 62.0718 1290.53L64.7806 1253.96C64.8122 1253.53 64.5664 1253.14 64.1861 1252.94C60.5387 1251.06 58 1246.87 58 1242C58 1235.37 62.701 1228 68.5 1228C74.299 1228 79 1235.37 79 1242Z"/>
</mask>
<path d="M74.95 1290.69L72.4547 1290.84L72.4595 1290.92L72.4691 1291L74.95 1290.69ZM62.0718 1290.53L64.5443 1290.9L64.5581 1290.81L64.565 1290.72L62.0718 1290.53ZM64.7806 1253.96L62.2875 1253.78L64.7806 1253.96ZM64.1861 1252.94L65.3319 1250.72L64.1861 1252.94ZM73.2155 1252.72L71.9686 1250.56L73.2155 1252.72ZM72.667 1253.7L70.1717 1253.86L72.667 1253.7ZM74.4623 1254.89C78.7379 1252.43 81.5 1247.5 81.5 1242H76.5C76.5 1245.88 74.5549 1249.07 71.9686 1250.56L74.4623 1254.89ZM77.4452 1290.54L75.1622 1253.55L70.1717 1253.86L72.4547 1290.84L77.4452 1290.54ZM72.4691 1291C72.4894 1291.16 72.5 1291.33 72.5 1291.5H77.5C77.5 1291.12 77.4766 1290.75 77.4309 1290.38L72.4691 1291ZM72.5 1291.5C72.5 1293.71 70.7091 1295.5 68.5 1295.5V1300.5C73.4706 1300.5 77.5 1296.47 77.5 1291.5H72.5ZM68.5 1295.5C66.2909 1295.5 64.5 1293.71 64.5 1291.5H59.5C59.5 1296.47 63.5294 1300.5 68.5 1300.5V1295.5ZM64.5 1291.5C64.5 1291.29 64.5153 1291.09 64.5443 1290.9L59.5993 1290.16C59.5338 1290.6 59.5 1291.05 59.5 1291.5H64.5ZM62.2875 1253.78L59.5786 1290.35L64.565 1290.72L67.2738 1254.15L62.2875 1253.78ZM55.5 1242C55.5 1247.71 58.4781 1252.81 63.0403 1255.17L65.3319 1250.72C62.5992 1249.31 60.5 1246.03 60.5 1242H55.5ZM68.5 1225.5C64.4905 1225.5 61.2004 1228.03 59.0381 1231.07C56.8518 1234.14 55.5 1238.14 55.5 1242H60.5C60.5 1239.23 61.4987 1236.23 63.1126 1233.96C64.7506 1231.66 66.7105 1230.5 68.5 1230.5V1225.5ZM81.5 1242C81.5 1238.14 80.1482 1234.14 77.9619 1231.07C75.7996 1228.03 72.5095 1225.5 68.5 1225.5V1230.5C70.2895 1230.5 72.2494 1231.66 73.8874 1233.96C75.5013 1236.23 76.5 1239.23 76.5 1242H81.5ZM67.2738 1254.15C67.387 1252.62 66.5086 1251.33 65.3319 1250.72L63.0403 1255.17C62.6242 1254.95 62.2374 1254.45 62.2875 1253.78L67.2738 1254.15ZM71.9686 1250.56C70.8785 1251.19 70.0826 1252.41 70.1717 1253.86L75.1622 1253.55C75.2015 1254.19 74.8516 1254.67 74.4623 1254.89L71.9686 1250.56Z" fill="#333333" mask="url(#path-33-inside-6_5415_12902)"/>
<mask id="path-35-inside-7_5415_12902" fill="white">
<path fill-rule="evenodd" clip-rule="evenodd" d="M21.4104 1185C18.5667 1185 16.2887 1187.4 17.2061 1190.09C20.9136 1200.97 34.2721 1213 50.1835 1213C66.0949 1213 79.4535 1200.97 83.161 1190.09C84.0783 1187.4 81.8004 1185 78.9567 1185H21.4104Z"/>
</mask>
<path d="M83.161 1190.09L80.7946 1189.29L83.161 1190.09ZM50.1835 1210.5C42.864 1210.5 36.0624 1207.73 30.6233 1203.63C25.162 1199.51 21.2388 1194.18 19.5724 1189.29L14.8397 1190.9C16.8808 1196.89 21.4907 1203.01 27.6133 1207.62C33.7583 1212.26 41.5917 1215.5 50.1835 1215.5V1210.5ZM80.7946 1189.29C79.1283 1194.18 75.2051 1199.51 69.7437 1203.63C64.3047 1207.73 57.5031 1210.5 50.1835 1210.5V1215.5C58.7754 1215.5 66.6088 1212.26 72.7537 1207.62C78.8764 1203.01 83.4863 1196.89 85.5273 1190.9L80.7946 1189.29ZM78.9567 1182.5H21.4104V1187.5H78.9567V1182.5ZM85.5273 1190.9C86.2947 1188.65 85.7048 1186.46 84.3603 1184.9C83.0532 1183.39 81.0702 1182.5 78.9567 1182.5V1187.5C79.6868 1187.5 80.2647 1187.81 80.5781 1188.17C80.8542 1188.49 80.9446 1188.85 80.7946 1189.29L85.5273 1190.9ZM19.5724 1189.29C19.4225 1188.85 19.5129 1188.49 19.789 1188.17C20.1024 1187.81 20.6803 1187.5 21.4104 1187.5V1182.5C19.2968 1182.5 17.3139 1183.39 16.0068 1184.9C14.6622 1186.46 14.0724 1188.65 14.8397 1190.9L19.5724 1189.29Z" fill="#333333" mask="url(#path-35-inside-7_5415_12902)"/>
<path d="M36.9529 1186.5C34.6195 1185 30.0529 1179.7 30.4529 1170.5C30.9529 1159 30.9526 1160.5 32.9526 1160.5C34.5823 1160.5 44.511 1159.84 50.5668 1165M56.9526 1186.5C57.4526 1184.17 57.5526 1177.5 53.9526 1169.5C53.1193 1167.65 51.9431 1166.17 50.5668 1165M50.5668 1165C53.1954 1161.67 60.1526 1155 66.9526 1155C69.6193 1156.67 74.5526 1162.1 72.9526 1170.5M72.9526 1170.5C71.3526 1178.9 65.6193 1184.33 62.9526 1186M72.9526 1170.5C72.9526 1170.5 74.786 1167.17 76.9526 1169C79.1193 1170.83 82.5526 1176.8 78.9526 1186" stroke="#333333" stroke-width="2.5"/>
<path d="M30.4528 1169.5C28.4528 1169 23.5528 1168.9 19.9528 1172.5C15.4528 1177 19.9528 1185.5 24.4528 1186M38.9526 1169.5C41.786 1173.83 48.4526 1183.2 52.4526 1186M63.9526 1164C61.6193 1167.33 56.9526 1174.9 56.9526 1178.5" stroke="#333333" stroke-width="2.5" stroke-linecap="round"/>
<path d="M45 1080.5C48.5 1085.5 48 1095.5 42.5 1097C39.557 1097.8 34.6204 1097.96 33 1090.61M67 1134C65.6094 1119.82 65.3017 1111.82 65.3885 1107M33 1090.61C32.7423 1089.44 32.5685 1088.08 32.4999 1086.5C32.0999 1077.3 40.3332 1072.33 44.4999 1071C48.6666 1070.17 58.2 1069.7 63 1074.5C69 1080.5 66 1082.5 71 1083C76 1083.5 77 1084 77.5 1086.5C78 1089 77 1096.5 68 1097C67.5 1097 66.4 1097.6 66 1100C65.7781 1101.33 65.4578 1103.15 65.3885 1107M33 1090.61C33.3945 1092.95 33.8513 1097.94 33.24 1102.5M21 1133C24.1667 1126.17 30.9 1111.2 32.4999 1106C32.8372 1104.9 33.0767 1103.72 33.24 1102.5M33.24 1102.5C38.419 1104.17 52.0993 1107.4 65.3885 1107" stroke="#333333" stroke-width="2.5" stroke-linecap="round"/>
<circle cx="60" cy="1081.5" r="1.5" fill="#333333"/>
<mask id="path-41-inside-8_5415_12902" fill="white">
<rect x="23" y="904" width="54" height="69" rx="1"/>
</mask>
<rect x="23" y="904" width="54" height="69" rx="1" stroke="#333333" stroke-width="5" mask="url(#path-41-inside-8_5415_12902)"/>
<line x1="25" y1="917.75" x2="77" y2="917.75" stroke="#333333" stroke-width="2.5"/>
<line x1="64" y1="911.75" x2="71" y2="911.75" stroke="#333333" stroke-width="2.5"/>
<circle cx="49.5" cy="944.5" r="18.25" stroke="#333333" stroke-width="2.5"/>
<path d="M60 861L38 888H81L69.5 869.5L66 871.5L60 861Z" stroke="#333333" stroke-width="2.5"/>
<path d="M51 843C51 834.716 44.2843 828 36 828C27.7157 828 21 834.716 21 843" stroke="#333333" stroke-width="2.5"/>
<path d="M52 871L51 843H36.2388H20.9552L20 888H38.1493" stroke="#333333" stroke-width="2.5"/>
<circle cx="36.5" cy="837.5" r="1.5" fill="#333333"/>
<circle cx="30.5" cy="837.5" r="1.5" fill="#333333"/>
<circle cx="42.5" cy="837.5" r="1.5" fill="#333333"/>
<circle cx="64" cy="855" r="1" fill="#333333"/>
<circle cx="72" cy="860" r="1" fill="#333333"/>
<circle cx="69.5" cy="848.5" r="1.5" fill="#333333"/>
<path d="M69.1095 773C61.9428 780.333 48.2095 797.9 50.6095 809.5M36.1094 757C37.1094 767.333 39.8094 790.3 42.6094 799.5M53.6096 795C51.2762 790.833 48.6096 780.3 56.6096 771.5C64.6096 762.7 75.9429 762.833 80.6095 764C81.2762 770.333 80.7095 784.2 73.1095 789C63.6095 795 60.6096 795 53.6096 795ZM21.1094 788C20.4427 794.333 22.5094 807 36.1094 807C37.2761 801.167 35.9094 789.2 21.1094 788ZM34.6094 744C27.1094 753.667 17.7094 775.4 40.1094 785C47.276 778.167 56.2094 760.4 34.6094 744Z" stroke="#333333" stroke-width="2.5" stroke-linecap="round"/>
<path d="M29.0127 645.695L22.543 615.195H78.9798L72.9722 645.695H29.0127Z" stroke="#333333" stroke-width="2.5"/>
<path d="M17 614.945H84" stroke="#333333" stroke-width="2.5" stroke-linecap="round"/>
<circle cx="66" cy="602.945" r="6.75" stroke="#333333" stroke-width="2.5"/>
<mask id="path-58-inside-9_5415_12902" fill="white">
<path fill-rule="evenodd" clip-rule="evenodd" d="M52.9381 615.945C52.979 615.618 53 615.284 53 614.945C53 610.527 49.4183 606.945 45 606.945C40.5817 606.945 37 610.527 37 614.945C37 615.284 37.021 615.618 37.0619 615.945H52.9381Z"/>
</mask>
<path d="M52.9381 615.945V618.445H55.1457L55.4189 616.255L52.9381 615.945ZM37.0619 615.945L34.5811 616.255L34.8543 618.445H37.0619V615.945ZM50.5 614.945C50.5 615.18 50.4854 615.411 50.4573 615.636L55.4189 616.255C55.4725 615.825 55.5 615.388 55.5 614.945H50.5ZM45 609.445C48.0376 609.445 50.5 611.908 50.5 614.945H55.5C55.5 609.146 50.799 604.445 45 604.445V609.445ZM39.5 614.945C39.5 611.908 41.9624 609.445 45 609.445V604.445C39.201 604.445 34.5 609.146 34.5 614.945H39.5ZM39.5427 615.636C39.5146 615.411 39.5 615.18 39.5 614.945H34.5C34.5 615.388 34.5275 615.825 34.5811 616.255L39.5427 615.636ZM37.0619 618.445H52.9381V613.445H37.0619V618.445Z" fill="#333333" mask="url(#path-58-inside-9_5415_12902)"/>
<path d="M20.6733 605L75.6733 586" stroke="#333333" stroke-width="2.5" stroke-linecap="round"/>
<mask id="path-61-inside-10_5415_12902" fill="white">
<path fill-rule="evenodd" clip-rule="evenodd" d="M53.9994 594.032C53.9998 594.003 54 593.974 54 593.945C54 590.632 51.3137 587.945 48 587.945C44.6863 587.945 42 590.632 42 593.945C42 595.419 42.5316 596.769 43.4136 597.814L53.9994 594.032Z"/>
</mask>
<path d="M53.9994 594.032L54.8405 596.386L56.4746 595.803L56.4991 594.068L53.9994 594.032ZM43.4136 597.814L41.5034 599.427L42.622 600.752L44.2547 600.168L43.4136 597.814ZM51.5 593.945C51.5 593.962 51.4999 593.98 51.4996 593.997L56.4991 594.068C56.4997 594.027 56.5 593.986 56.5 593.945H51.5ZM48 590.445C49.933 590.445 51.5 592.012 51.5 593.945H56.5C56.5 589.251 52.6944 585.445 48 585.445V590.445ZM44.5 593.945C44.5 592.012 46.067 590.445 48 590.445V585.445C43.3056 585.445 39.5 589.251 39.5 593.945H44.5ZM45.3237 596.201C44.8084 595.591 44.5 594.807 44.5 593.945H39.5C39.5 596.032 40.2549 597.948 41.5034 599.427L45.3237 596.201ZM44.2547 600.168L54.8405 596.386L53.1583 591.678L42.5725 595.46L44.2547 600.168Z" fill="#333333" mask="url(#path-61-inside-10_5415_12902)"/>
<path d="M38.75 512C38.75 514.095 37.6389 516.681 35.7134 518.766C33.8008 520.837 31.2377 522.25 28.5 522.25C25.7623 522.25 23.1992 520.837 21.2866 518.766C19.3611 516.681 18.25 514.095 18.25 512C18.25 507.988 22.5364 504.25 28.5 504.25C34.4636 504.25 38.75 507.988 38.75 512Z" stroke="#333333" stroke-width="2.5"/>
<mask id="path-64-inside-11_5415_12902" fill="white">
<path fill-rule="evenodd" clip-rule="evenodd" d="M28.5 521.5C26.5474 521.5 23.5 520 23.5 520L24 561H24.0275C24.2762 563.25 26.1837 565 28.5 565C30.8163 565 32.7238 563.25 32.9725 561H33L33.5 520C33.5 520 30.4526 521.5 28.5 521.5Z"/>
</mask>
<path d="M23.5 520L24.6041 517.757L20.9505 515.959L21.0002 520.03L23.5 520ZM24 561L21.5002 561.03L21.5303 563.5H24V561ZM24.0275 561L26.5123 560.725L26.2663 558.5H24.0275V561ZM32.9725 561V558.5H30.7337L30.4877 560.725L32.9725 561ZM33 561V563.5H35.4697L35.4998 561.03L33 561ZM33.5 520L35.9998 520.03L36.0495 515.959L32.3959 517.757L33.5 520ZM23.5 520C22.3959 522.243 22.3962 522.243 22.3965 522.243C22.3966 522.243 22.397 522.244 22.3972 522.244C22.3977 522.244 22.3982 522.244 22.3987 522.244C22.3999 522.245 22.4012 522.246 22.4027 522.246C22.4056 522.248 22.4094 522.25 22.4139 522.252C22.4228 522.256 22.4347 522.262 22.4493 522.269C22.4787 522.283 22.5193 522.302 22.5701 522.326C22.6716 522.374 22.8146 522.44 22.9908 522.519C23.3413 522.675 23.832 522.883 24.3945 523.093C25.4257 523.477 27.0399 524 28.5 524V519C28.0075 519 27.1217 518.773 26.141 518.407C25.6976 518.242 25.3045 518.075 25.0226 517.95C24.8825 517.888 24.7722 517.837 24.6994 517.802C24.6631 517.785 24.6363 517.773 24.6201 517.765C24.6119 517.761 24.6065 517.758 24.6037 517.757C24.6024 517.756 24.6017 517.756 24.6018 517.756C24.6018 517.756 24.602 517.756 24.6024 517.756C24.6026 517.756 24.6028 517.756 24.6031 517.757C24.6032 517.757 24.6035 517.757 24.6035 517.757C24.6038 517.757 24.6041 517.757 23.5 520ZM26.4998 560.97L25.9998 519.97L21.0002 520.03L21.5002 561.03L26.4998 560.97ZM24.0275 558.5H24V563.5H24.0275V558.5ZM28.5 562.5C27.4722 562.5 26.6226 561.723 26.5123 560.725L21.5426 561.275C21.9298 564.777 24.8952 567.5 28.5 567.5V562.5ZM30.4877 560.725C30.3774 561.723 29.5278 562.5 28.5 562.5V567.5C32.1048 567.5 35.0702 564.777 35.4574 561.275L30.4877 560.725ZM33 558.5H32.9725V563.5H33V558.5ZM31.0002 519.97L30.5002 560.97L35.4998 561.03L35.9998 520.03L31.0002 519.97ZM28.5 524C29.9601 524 31.5743 523.477 32.6055 523.093C33.168 522.883 33.6587 522.675 34.0092 522.519C34.1854 522.44 34.3284 522.374 34.4299 522.326C34.4807 522.302 34.5213 522.283 34.5507 522.269C34.5653 522.262 34.5772 522.256 34.5861 522.252C34.5906 522.25 34.5944 522.248 34.5973 522.246C34.5988 522.246 34.6001 522.245 34.6013 522.244C34.6018 522.244 34.6023 522.244 34.6028 522.244C34.603 522.244 34.6034 522.243 34.6035 522.243C34.6038 522.243 34.6041 522.243 33.5 520C32.3959 517.757 32.3962 517.757 32.3965 517.757C32.3965 517.757 32.3968 517.757 32.3969 517.757C32.3972 517.756 32.3974 517.756 32.3976 517.756C32.398 517.756 32.3982 517.756 32.3982 517.756C32.3983 517.756 32.3976 517.756 32.3963 517.757C32.3935 517.758 32.3881 517.761 32.3799 517.765C32.3637 517.773 32.3369 517.785 32.3006 517.802C32.2278 517.837 32.1175 517.888 31.9774 517.95C31.6955 518.075 31.3024 518.242 30.859 518.407C29.8783 518.773 28.9925 519 28.5 519V524Z" fill="#333333" mask="url(#path-64-inside-11_5415_12902)"/>
<circle cx="61" cy="532" r="21.75" stroke="#333333" stroke-width="2.5"/>
<path d="M51.5 552H38V562H84V552H70.5" stroke="#333333" stroke-width="2.5"/>
<circle cx="61" cy="532" r="14.75" stroke="#333333" stroke-width="2.5"/>
<path d="M54 454.5L56 427.5H23L28 480M19 480H77.5" stroke="#333333" stroke-width="2.5"/>
<mask id="path-70-inside-12_5415_12902" fill="white">
<path fill-rule="evenodd" clip-rule="evenodd" d="M75 454H39V458.75V463.5C39 470.033 42.4808 476.402 47.6892 480H66.3108C71.5192 476.402 75 470.033 75 463.5V454Z"/>
</mask>
<path d="M39 454V451.5H36.5V454H39ZM75 454H77.5V451.5H75V454ZM47.6892 480L46.2682 482.057L46.9096 482.5H47.6892V480ZM66.3108 480V482.5H67.0904L67.7318 482.057L66.3108 480ZM39 456.5H75V451.5H39V456.5ZM41.5 458.75V454H36.5V458.75H41.5ZM41.5 463.5V458.75H36.5V463.5H41.5ZM49.1102 477.943C44.559 474.799 41.5 469.19 41.5 463.5H36.5C36.5 470.877 40.4027 478.005 46.2682 482.057L49.1102 477.943ZM66.3108 477.5H47.6892V482.5H66.3108V477.5ZM72.5 463.5C72.5 469.19 69.441 474.799 64.8898 477.943L67.7318 482.057C73.5973 478.005 77.5 470.877 77.5 463.5H72.5ZM72.5 454V463.5H77.5V454H72.5Z" fill="#333333" mask="url(#path-70-inside-12_5415_12902)"/>
<path d="M74.4998 467C78.6419 467 82.4998 464.314 82.4998 461C82.4998 457.686 79.1419 455 74.9998 455M64.4998 431.5C65.6665 432.167 67.5998 434.4 65.9998 438C63.9998 442.5 63.4998 443 65.9998 447" stroke="#333333" stroke-width="2.5" stroke-linecap="round"/>
<path d="M24.5 439.5H55" stroke="#333333" stroke-width="2.5"/>
<path fill-rule="evenodd" clip-rule="evenodd" d="M45.8936 346V338H56.8936V346H45.8936ZM43.8936 337C43.8936 336.448 44.3413 336 44.8936 336H57.8936C58.4458 336 58.8936 336.448 58.8936 337V346.627L58.9849 346.694C62.829 349.513 66.5308 353.344 69.4032 357.493C72.2688 361.632 74.3588 366.16 74.8858 370.376C75.3954 374.453 75.5184 382.645 75.456 390.133C75.4247 393.891 75.3464 397.494 75.2445 400.348C75.1438 403.167 75.0181 405.336 74.8799 406.164C74.3811 409.157 71.7776 410.283 70.5579 410.486L70.4889 410.498L70.4189 410.5C63.8319 410.666 53.8503 410.867 45.3128 410.925C41.0453 410.954 37.1309 410.948 34.1796 410.884C32.7055 410.852 31.4601 410.806 30.5267 410.741C30.0613 410.709 29.6592 410.671 29.3389 410.626C29.0688 410.588 28.7128 410.528 28.4462 410.394C28.0441 410.193 27.8001 409.832 27.6535 409.564C27.4912 409.267 27.3558 408.91 27.239 408.524C27.0043 407.749 26.8043 406.722 26.6372 405.512C26.3016 403.083 26.0814 399.79 26.0185 396.017C25.8927 388.469 26.395 378.903 27.9086 370.326C30.2748 356.918 39.1349 349.336 43.8936 346.877V337ZM29.8782 370.674C32.1756 357.655 40.9451 350.519 45.1178 348.5H58.0637C61.627 351.163 65.072 354.751 67.7589 358.632C70.5183 362.618 72.4283 366.84 72.9013 370.624C73.3917 374.547 73.5187 382.605 73.4561 390.117C73.4249 393.859 73.3469 397.444 73.2458 400.277C73.1433 403.146 73.0191 405.164 72.9072 405.836C72.6138 407.596 71.0913 408.344 70.2914 408.502C63.711 408.668 53.7869 408.867 45.2991 408.925C41.0374 408.954 37.1455 408.948 34.2228 408.885C32.7599 408.853 31.5514 408.807 30.6652 408.746C30.2207 408.715 29.8715 408.681 29.6181 408.645C29.5274 408.633 29.4602 408.621 29.4123 408.612L29.4082 408.604C29.3376 408.475 29.2493 408.262 29.1532 407.945C28.9622 407.314 28.7793 406.403 28.6184 405.238C28.2976 402.917 28.0804 399.71 28.0182 395.983C27.894 388.531 28.3917 379.097 29.8782 370.674ZM29.4624 408.691L29.4647 408.694C29.4654 408.695 29.4657 408.695 29.4657 408.695L29.4645 408.693L29.4624 408.691ZM64.1031 375.391C64.2778 373.25 63.8583 370.394 62.7057 367.388C61.5531 364.381 59.956 361.977 58.3943 360.501C56.7165 358.916 55.6303 358.855 55.2119 359.015C54.7935 359.176 54.0262 359.947 53.8385 362.248C53.6638 364.39 54.0833 367.245 55.2359 370.251C56.3885 373.258 57.9856 375.662 59.5472 377.138C61.2251 378.723 62.3113 378.784 62.7297 378.624C63.1481 378.463 63.9153 377.692 64.1031 375.391ZM63.4456 380.491C66.5397 379.305 67.0445 373.118 64.5731 366.672C62.1017 360.226 57.59 355.962 54.4959 357.148C51.4018 358.334 50.897 364.521 53.3684 370.967C55.8398 377.414 60.3515 381.677 63.4456 380.491ZM39.8936 400.5H62.8936V398.5H39.8936V400.5Z" fill="#333333"/>
<path d="M78.2192 208.161C81.5 205 82.5 202.75 82.5 198C82.5 191.348 77.6516 186.5 71 186.5C68.2882 186.5 66.7421 186.896 64.729 188.409" stroke="#333333" stroke-width="2.5" stroke-linecap="round"/>
<path d="M41.6058 198.044C41.6058 191.392 36.2136 186 29.562 186C22.9104 186 18 191.392 18 198.044C18 201.763 19.2044 205.089 21.854 207.298" stroke="#333333" stroke-width="2.5"/>
<path d="M55.0949 198.044C55.0949 191.392 49.7027 186 43.0511 186C40.5522 186 38.2309 186.761 36.3066 188.064" stroke="#333333" stroke-width="2.5"/>
<path d="M69.5475 198.044C69.5475 191.392 64.1554 186 57.5038 186C54.792 186 52.2895 186.896 50.2764 188.409" stroke="#333333" stroke-width="2.5"/>
<path d="M21.3721 206.715V229.175C21.3721 231.936 23.6106 234.175 26.3721 234.175H73.2186C75.98 234.175 78.2186 231.936 78.2186 229.175V208.16" stroke="#333333" stroke-width="2.5"/>
<rect x="26.25" y="41.1328" width="48.5" height="36.5" fill="#D0A6FD" stroke="#5F0080" stroke-width="2.5"/>
<rect x="22.25" y="30.1328" width="56.5" height="13.5" fill="#D0A6FD" stroke="#5F0080" stroke-width="2.5"/>
<line x1="51.25" y1="28.8828" x2="51.25" y2="77.8828" stroke="#5F0080" stroke-width="2.5"/>
<path d="M41.8916 19.3828C47.4916 20.9828 49.8916 26.0494 50.3916 28.3828L50.5 29.8828H41.8916C40.0583 28.8828 37 28.3828 35.3916 25.3828C34.5398 23.7939 34.8916 17.3828 41.8916 19.3828Z" fill="#FCF97C" stroke="#5F0080" stroke-width="2.5"/>
<path d="M59.6084 19.3828C54.0084 20.9828 51.6084 26.0494 51.1084 28.3828L51 29.8828H59.6084C61.4417 28.8828 64.5 28.3828 66.1084 25.3828C66.9602 23.7939 66.6084 17.3828 59.6084 19.3828Z" fill="#FCF97C" stroke="#5F0080" stroke-width="2.5"/>
<path d="M35 107.5H46.5" stroke="#333333" stroke-width="2"/>
<path d="M56 154.5H69" stroke="#333333" stroke-width="2"/>
<mask id="path-87-inside-13_5415_12902" fill="white">
<path fill-rule="evenodd" clip-rule="evenodd" d="M47 137C46.4477 137 46 137.448 46 138V140C46 146.606 49.6575 152.333 55 155.146V164H70V155.146C75.3425 152.333 79 146.606 79 140V138C79 137.448 78.5523 137 78 137H47Z"/>
</mask>
<path d="M55 155.146H57V153.939L55.932 153.377L55 155.146ZM55 164H53V166H55V164ZM70 164V166H72V164H70ZM70 155.146L69.068 153.377L68 153.939V155.146H70ZM48 138C48 138.552 47.5523 139 47 139V135C45.3431 135 44 136.343 44 138H48ZM48 140V138H44V140H48ZM55.932 153.377C51.2405 150.906 48 145.857 48 140H44C44 147.355 48.0745 153.759 54.068 156.916L55.932 153.377ZM57 164V155.146H53V164H57ZM70 162H55V166H70V162ZM68 155.146V164H72V155.146H68ZM77 140C77 145.857 73.7595 150.906 69.068 153.377L70.932 156.916C76.9255 153.759 81 147.355 81 140H77ZM77 138V140H81V138H77ZM78 139C77.4477 139 77 138.552 77 138H81C81 136.343 79.6569 135 78 135V139ZM47 139H78V135H47V139Z" fill="#333333" mask="url(#path-87-inside-13_5415_12902)"/>
<path d="M57.5 137.5C57.6667 137.167 57.6 135.4 56 131C54 125.5 47.5 113 47 109C46.75 107 46.6961 104.248 50 100C53.3039 95.7521 49.5 95 46.5 95C42 95 38.2 95 35 95C31 95 29 96.5 31.5 100.5C33.2989 103.378 34.8334 107.167 35 109C35.5 115.5 26 125.5 24.5 137.5C23 149.5 26 155.5 31.5 163M21 163H77.5" stroke="#333333" stroke-width="2"/>
<path d="M63 681C63 685.971 59.4183 690 55 690C50.5817 690 47 685.971 47 681" stroke="#333333" stroke-width="2.5"/>
<line x1="46.75" y1="682" x2="46.75" y2="666" stroke="#333333" stroke-width="2.5"/>
<line x1="62.75" y1="682" x2="62.75" y2="666" stroke="#333333" stroke-width="2.5"/>
<path d="M56.25 667L56.25 665.75L53.75 665.75L53.75 667L56.25 667ZM53.75 728C53.75 728.69 54.3096 729.25 55 729.25C55.6904 729.25 56.25 728.69 56.25 728L53.75 728ZM53.75 667L53.75 728L56.25 728L56.25 667L53.75 667Z" fill="#333333"/>
<path d="M81 665L81 726" stroke="#333333" stroke-width="2.5" stroke-linecap="round"/>
<path d="M80.9999 665C71.9999 668.5 64.5 690.5 80.9999 699.5" stroke="#333333" stroke-width="2.5"/>
<path d="M37.7499 677.5C37.7499 684.245 33.6023 688.75 28.9999 688.75C24.3976 688.75 20.25 684.245 20.25 677.5C20.25 674.158 21.2947 671.045 22.9383 668.795C24.5855 666.54 26.7469 665.25 28.9999 665.25C31.253 665.25 33.4144 666.54 35.0616 668.795C36.7052 671.045 37.7499 674.158 37.7499 677.5Z" stroke="#333333" stroke-width="2.5"/>
<path d="M30.25 689L30.25 687.75L27.75 687.75L27.75 689L30.25 689ZM27.75 728C27.75 728.69 28.3096 729.25 29 729.25C29.6904 729.25 30.25 728.69 30.25 728L27.75 728ZM27.75 689L27.75 728L30.25 728L30.25 689L27.75 689Z" fill="#333333"/>
<path d="M52.5657 990.5C56.1657 992.5 56.3991 995.333 56.0657 996.5C55.5656 1000.5 59.0659 998.5 62.0659 1005C64.7328 1010.78 70.5659 1010.5 73.5659 1010C76.5659 1009.5 80.0659 1010 81.0659 1015.5C82.0659 1021 81.0659 1021.5 80.0659 1028C79.0659 1034.5 77.5659 1035.5 74.5659 1038.5C71.5659 1041.5 70.5659 1045 64.0659 1047C57.5659 1049 56.0657 1051.5 51.0659 1051C46.0661 1050.5 41.0659 1051.5 38.5657 1049C36.0656 1046.5 30.0659 1046 28.0657 1042C26.0656 1038 21.0659 1036.5 20.5657 1031C20.0656 1025.5 18.5657 1022.5 18.0657 1020C17.5657 1017.5 20.0657 1014.5 20.5657 1009C21.0657 1003.5 25.0657 1003 28.0657 998C31.0657 993 34.5657 995 38.5657 992.5C42.5657 990 48.0657 988 52.5657 990.5Z" stroke="#333333" stroke-width="2"/>
<circle cx="67.0659" cy="992" r="2" fill="#333333"/>
<circle cx="75.0659" cy="999" r="2" fill="#333333"/>
<circle cx="50.0659" cy="1006" r="2" fill="#333333"/>
<circle cx="37.0659" cy="1012" r="2" fill="#333333"/>
<circle cx="37.0659" cy="1028" r="2" fill="#333333"/>
<circle cx="51.0659" cy="1020" r="2" fill="#333333"/>
<circle cx="50.0659" cy="1034" r="2" fill="#333333"/>
<circle cx="64.0659" cy="1028" r="2" fill="#333333"/>
<path d="M20.158 278.231C19.358 283.431 17.8247 290.397 17.158 293.231C16.658 297.397 17.058 307.331 22.658 313.731C29.658 321.731 45.658 323.731 56.658 307.731C67.658 291.731 80.658 291.731 82.658 282.731C84.658 273.731 78.658 268.731 70.658 266.231C62.658 263.731 46.658 265.731 37.658 266.231C28.658 266.731 21.158 271.731 20.158 278.231Z" stroke="#333333" stroke-width="2.3"/>
<path d="M27.6581 286.231C28.8581 280.631 31.8247 278.564 33.1581 278.231C38.1581 277.731 46.6581 288.731 49.6581 293.231C52.6581 297.731 49.6581 305.231 42.1581 308.731C34.6581 312.231 30.6581 309.731 26.6581 305.231C22.6581 300.731 26.1581 293.231 27.6581 286.231Z" stroke="#333333" stroke-width="2.3"/>
<path d="M51.1581 282.731C48.7581 278.331 49.6581 275.731 54.6581 274.731C57.6581 274.564 64.1581 274.331 68.1581 274.731C73.1581 275.231 74.1581 279.231 73.6581 281.731C73.1581 284.231 68.6581 284.731 63.6581 287.731C58.6581 290.731 54.1581 288.231 51.1581 282.731Z" stroke="#333333" stroke-width="2.3"/>
</svg>
